<?xml version="1.0" encoding="UTF-8"?>
<svg width="375px" height="272px" viewBox="0 0 375 272" version="1.1" xmlns="http://www.w3.org/2000/svg" xmlns:xlink="http://www.w3.org/1999/xlink">
    <!-- Generator: Sketch 55.2 (78181) - https://sketchapp.com -->
    <title>Group 2</title>
    <style>
        #like-1{animation: move_1 3s infinite ease-in-out;position :relative;}
        #like-2{animation: move_2 2s infinite ease-in-out;position :relative;}
        #like-3{animation: move_3 5s infinite ease-in-out;position :relative;}
        #like-4{animation: move_4 2.5s infinite ease-in-out;position :relative;}
        #like-5{animation: move_5 6s infinite ease-in-out;position :relative;}
        #like-6{animation: move_6 3s infinite ease-in-out;position :relative;}
        #like-7{animation: move_7 3.4s infinite ease-in-out;position :relative;}
        #like-8{animation: move_8 4s infinite ease-in-out;position :relative;}
        #like-9{animation: move_9 5.2s infinite ease-in-out;position :relative;}
        @keyframes move_1 {
          from{
                opacity: 1;
                transform: translate(269px, 300px);
            }
           
            to {
                opacity: 0;
                transform: translate(269px, -130px);
            }
        }


 @keyframes move_2 {
          from{
                opacity: 1;
                transform: translate(90px, 300px);
            }
           
            to {
                opacity: 0;
                transform: translate(90px, -130px);
            }
        }


         @keyframes move_3 {
          from{
                opacity: 1;
                transform: translate(204px, 300px);
            }
           
            to {
                opacity: 0;
                transform: translate(204px, -130px);
            }
        }

        @keyframes move_4 {
          from{
                opacity: 1;
                transform: translate(312px, 300px);
            }
           
            to {
                opacity: 0;
                transform: translate(312px, -130px);
            }
        }



 @keyframes move_5 {
          from{
                opacity: 1;
                transform: translate(32px, 300px);
            }
           
            to {
                opacity: 0;
                transform: translate(32px, -130px);
            }
        }

         @keyframes move_6 {
          from{
                opacity: 1;
                transform: translate(160px, 300px);
            }
           
            to {
                opacity: 0;
                transform: translate(160px, -130px);
            }
        }


             @keyframes move_7 {
          from{
                opacity: 1;
                transform: translate(317px, 300px);
            }
           
            to {
                opacity: 0;
                transform: translate(317px, -130px);
            }
        }


            @keyframes move_8 {
          from{
                opacity: 1;
                transform: translate(237px, 300px);
            }
           
            to {
                opacity: 0;
                transform: translate(237px, -130px);
            }
        }


           @keyframes move_9 {
          from{
                opacity: 1;
                transform: translate(32px, 300px);
            }
           
            to {
                opacity: 0;
                transform: translate(32px, -130px);
            }
        }

        

    </style>
    <desc>Created with Sketch.</desc>
       
    
    <g id="after-login" stroke="none" stroke-width="1" fill="none" fill-rule="evenodd">
        <g id="Artboard">
            <g id="Group-2">
                <rect id="Rectangle" fill="" x="0" y="0" width="375" height="272"></rect>
                <g id="like-1" transform="translate(269.000000, 68.000000)" fill-rule="nonzero">
                    <g id="Group" transform="translate(1.000000, 0.000000)">
                        <ellipse id="Oval" fill="#407FFF" cx="28.0043855" cy="28.0043855" rx="27.9437751" ry="27.9481606"></ellipse>
                        <path d="M42.973253,4.40139759 C48.0342811,9.45961446 51.164996,16.449494 51.164996,24.170747 C51.164996,39.6060562 38.6541687,52.1189076 23.2212209,52.1189076 C17.7141044,52.1189076 12.5796466,50.5245944 8.25246586,47.7737349 C13.3087711,52.8272289 20.2916787,55.9525462 28.004498,55.9525462 C43.4374458,55.9525462 55.9482731,43.4396948 55.9482731,28.0043855 C55.9482731,18.0770924 50.7724337,9.35953414 42.973253,4.40139759 Z" id="Path" fill="#406AEF"></path>
                        <g transform="translate(15.180723, 13.943775)" id="Path">
                            <path d="M6.48115663,28.1148112 L1.56204016,28.1148112 C0.700899598,28.1148112 0.00281124498,27.4167229 0.00281124498,26.5555823 L0.00281124498,11.7862008 C0.00281124498,10.9250602 0.700899598,10.2269719 1.56204016,10.2269719 L6.48115663,10.2269719 C7.34229719,10.2269719 8.04038554,10.9250602 8.04038554,11.7862008 L8.04038554,26.5555823 C8.04038554,27.4167229 7.34229719,28.1148112 6.48115663,28.1148112 Z" fill="#48D8FF"></path>
                            <path d="M6.48126908,25.1771727 L1.56192771,25.1771727 C0.700899598,25.1771727 0.00281124498,24.4789719 0.00281124498,23.6178313 L0.00281124498,26.5554699 C0.00281124498,27.4167229 0.700899598,28.1148112 1.56192771,28.1148112 L6.48126908,28.1148112 C7.34229719,28.1148112 8.04038554,27.4167229 8.04038554,26.5554699 L8.04038554,23.6178313 C8.04038554,24.4789719 7.34240964,25.1771727 6.48126908,25.1771727 Z" fill="#43C5FF"></path>
                            <path d="M25.6446265,13.0932048 L25.6446265,13.0932048 C25.6446265,11.5715341 24.4111647,10.3380723 22.8896064,10.3380723 L18.9845622,10.3380723 C20.2062169,7.2813494 20.2010442,4.82117269 20.1845141,4.30918876 C20.1978956,4.21675502 20.2050924,4.12240964 20.2050924,4.02626506 L20.2050924,3.89818474 C20.123004,1.21794378 19.3024578,0.39739759 18.2488032,0.00640963855 L18.2488032,0.00640963855 C17.1683855,0.00640963855 16.2925141,0.882393574 16.2925141,1.96303614 L16.2925141,2.1584739 C16.2817189,2.8284498 15.3406265,4.21057028 15.3406265,4.21057028 L8.16149398,11.472241 L8.04049799,11.6213494 L8.04049799,13.0932048 L8.04049799,26.513751 C8.04049799,26.788241 8.26292369,27.0106667 8.53741365,27.0106667 L22.0528675,27.0106667 C22.9723695,27.0106667 23.7542329,26.3394538 23.8932209,25.4302972 C24.4246586,21.9545863 25.6446265,13.8904739 25.6446265,13.0932048 Z" fill="#E3FAFF"></path>
                            <path d="M22.8896064,10.3380723 L22.384257,10.3380723 C22.3583936,10.5804016 22.3198233,10.8978474 22.271245,11.273992 C21.346008,18.42951 15.25449,23.7872932 8.04049799,23.7871807 L8.04049799,23.7871807 L8.04049799,26.5138635 C8.04049799,26.7883534 8.26292369,27.0108916 8.53741365,27.0108916 L22.0530924,27.0108916 C22.9724819,27.0108916 23.7541205,26.3403534 23.8931084,25.4314217 C24.4245462,21.9560482 25.6446265,13.8906988 25.6446265,13.0934297 C25.6446265,11.5715341 24.4111647,10.3380723 22.8896064,10.3380723 Z" fill="#CCF4FF"></path>
                        </g>
                    </g>
                    <g id="Group" fill="#000000">
                        <path d="M49.8804444,9.74322222 C45.4016667,4.61422222 39.2428889,1.25777778 32.5385556,0.292 C32.0833333,0.226444444 31.6605556,0.542444444 31.5948889,0.998 C31.5292222,1.45355556 31.8453333,1.876 32.3008889,1.94166667 C38.6108889,2.85066667 44.4082222,6.01066667 48.625,10.8395556 C52.882,15.7145556 55.2265556,21.9683333 55.2265556,28.4488889 C55.2265556,35.6026667 52.4412222,42.3283333 47.3834444,47.3867778 C42.3257778,52.4452222 35.6013333,55.231 28.4487778,55.231 C21.4186667,55.231 14.7767778,52.5268889 9.74677778,47.6166667 C9.41744444,47.295 8.88977778,47.3015556 8.56844444,47.6308889 C8.24688889,47.9602222 8.25333333,48.4877778 8.58266667,48.8092222 C13.9257778,54.0251111 20.9811111,56.8975556 28.4488889,56.8975556 C36.0466667,56.8975556 43.1896667,53.9383333 48.5622222,48.565 C53.9346667,43.1917778 56.8933333,36.0476667 56.8933333,28.4487778 C56.8933333,21.565 54.4027778,14.9218889 49.8804444,9.74322222 Z" id="Path"></path>
                        <path d="M1.671,28.4488889 C1.671,21.2951111 4.45633333,14.5694444 9.51411111,9.511 C14.5717778,4.45244444 21.2962222,1.66666667 28.4487778,1.66666667 C28.909,1.66666667 29.2821111,1.29355556 29.2821111,0.833333333 C29.2821111,0.373111111 28.909,0 28.4487778,0 C20.851,0 13.708,2.95922222 8.33544444,8.33255556 C2.96311111,13.7057778 0.00433333333,20.8498889 0.00433333333,28.4488889 C0.00433333333,34.6233333 1.94877778,40.4963333 5.62755556,45.4331111 C5.79111111,45.6526667 6.04211111,45.7685556 6.29644444,45.7685556 C6.46955556,45.7685556 6.64422222,45.7147778 6.79377778,45.6034444 C7.16277778,45.3284444 7.239,44.8063333 6.964,44.4372222 C3.50133333,39.7903333 1.671,34.2616667 1.671,28.4488889 Z" id="Path"></path>
                        <path d="M22.1817778,23.8274444 L17.3212222,23.8274444 C16.0122222,23.8274444 14.9472222,24.8924444 14.9472222,26.2014444 L14.9472222,40.795 C14.9472222,42.104 16.0122222,43.169 17.3212222,43.169 L22.1817778,43.169 C23.0187778,43.169 23.7544444,42.7324444 24.1772222,42.0762222 C24.1893333,42.0765556 24.2012222,42.0781111 24.2134444,42.0781111 L37.568,42.0781111 C38.898,42.0781111 40.0092222,41.1238889 40.2103333,39.8092222 C40.3632222,38.809 40.5738889,37.4244444 40.7955556,35.9446667 C40.8637778,35.4895556 40.5501111,35.0652222 40.0948889,34.9971111 C39.6395556,34.929 39.2154444,35.2425556 39.1473333,35.6977778 C38.9258889,37.1756667 38.7155556,38.5584444 38.5627778,39.5573333 C38.4871111,40.0523333 38.0687778,40.4115556 37.568,40.4115556 L24.5557778,40.4115556 L24.5557778,26.3546667 L31.5282222,19.302 C31.5637778,19.266 31.596,19.2268889 31.6244444,19.1851111 C31.8755556,18.8163333 32.6957778,17.5475556 32.7094444,16.7018889 C32.7094444,16.6973333 32.7095556,16.6928889 32.7095556,16.6884444 L32.7095556,16.4953333 C32.7095556,15.9343333 33.1316667,15.47 33.6748889,15.4034444 C34.1648889,15.6082222 34.8352222,16.0871111 34.909,18.4203333 L34.909,18.5337778 C34.909,18.5861111 34.905,18.64 34.8972222,18.6941111 C34.8902222,18.7424444 34.8875556,18.7913333 34.8891111,18.84 C34.903,19.273 34.9142222,21.5793333 33.7624444,24.461 C33.6598889,24.7177778 33.6912222,25.0086667 33.8462222,25.2375556 C34.0013333,25.4664444 34.2597778,25.6035556 34.5362222,25.6035556 L38.3947778,25.6035556 C39.4363333,25.6035556 40.2836667,26.451 40.2836667,27.4924444 C40.2831111,27.6261111 40.2231111,28.3427778 39.6784444,32.1008889 C39.6124444,32.5563333 39.9282222,32.9791111 40.3836667,33.0451111 C40.8396667,33.1108889 41.262,32.7953333 41.3278889,32.3398889 C41.9504444,28.0447778 41.9504444,27.6577778 41.9504444,27.4925556 C41.9504444,25.5318889 40.3554444,23.9368889 38.3948889,23.9368889 L35.7238889,23.9368889 C36.5288889,21.4614444 36.5722222,19.5305556 36.5568889,18.8555556 C36.5694444,18.748 36.5757778,18.6401111 36.5757778,18.5336667 L36.5757778,18.4071111 C36.5757778,18.3985556 36.5756667,18.3901111 36.5754444,18.3816667 C36.4965556,15.8055556 35.7328889,14.3864444 34.0993333,13.7804444 C34.0065556,13.746 33.9084444,13.7284444 33.8094444,13.7284444 C32.284,13.7284444 31.0431111,14.9695556 31.0431111,16.4951111 L31.0431111,16.6751111 C31.027,16.9012222 30.6736667,17.6057778 30.2881111,18.1857778 L23.9378889,24.6091111 C23.503,24.1304444 22.8778889,23.8274444 22.1817778,23.8274444 Z M22.8891111,40.795 C22.8891111,41.185 22.5718889,41.5023333 22.1817778,41.5023333 L17.3212222,41.5023333 C16.9312222,41.5023333 16.6138889,41.185 16.6138889,40.795 L16.6138889,26.2014444 C16.6138889,25.8114444 16.9312222,25.4941111 17.3212222,25.4941111 L22.1817778,25.4941111 C22.5717778,25.4941111 22.8891111,25.8114444 22.8891111,26.2014444 L22.8891111,40.7536667 L22.8891111,40.795 Z" id="Shape"></path>
                    </g>
                </g>
                <g id="like-2" transform="translate(90.000000, 54.000000)" fill-rule="nonzero">
                    <g id="Group" transform="translate(1.000000, 0.000000)">
                        <ellipse id="Oval" fill="#407FFF" cx="25.503994" cy="25.503994" rx="25.4487952" ry="25.4527892"></ellipse>
                        <path d="M39.1363554,4.00841566 C43.745506,8.61500602 46.5966928,14.9807892 46.5966928,22.0126446 C46.5966928,36.0698012 35.2029036,47.4654337 21.1478976,47.4654337 C16.132488,47.4654337 11.4564639,46.0134699 7.51563855,43.5082229 C12.120488,48.110512 18.4799217,50.9567831 25.5040964,50.9567831 C39.5591024,50.9567831 50.9528916,39.5611506 50.9528916,25.503994 C50.9528916,16.4630663 46.2391807,8.52386145 39.1363554,4.00841566 Z" id="Path" fill="#406AEF"></path>
                        <g transform="translate(13.825301, 12.698795)" id="Path">
                            <path d="M5.90248193,25.6045602 L1.42257229,25.6045602 C0.638319277,25.6045602 0.00256024096,24.9688012 0.00256024096,24.1845482 L0.00256024096,10.7338614 C0.00256024096,9.94960843 0.638319277,9.3138494 1.42257229,9.3138494 L5.90248193,9.3138494 C6.68673494,9.3138494 7.32249398,9.94960843 7.32249398,10.7338614 L7.32249398,24.1845482 C7.32249398,24.9688012 6.68673494,25.6045602 5.90248193,25.6045602 Z" fill="#48D8FF"></path>
                            <path d="M5.90258434,22.9292108 L1.42246988,22.9292108 C0.638319277,22.9292108 0.00256024096,22.2933494 0.00256024096,21.5090964 L0.00256024096,24.1844458 C0.00256024096,24.9688012 0.638319277,25.6045602 1.42246988,25.6045602 L5.90258434,25.6045602 C6.68673494,25.6045602 7.32249398,24.9688012 7.32249398,24.1844458 L7.32249398,21.5090964 C7.32249398,22.2933494 6.68683735,22.9292108 5.90258434,22.9292108 Z" fill="#43C5FF"></path>
                            <path d="M23.3549277,11.9241687 L23.3549277,11.9241687 C23.3549277,10.5383614 22.2315964,9.41503012 20.8458916,9.41503012 L17.289512,9.41503012 C18.4020904,6.63122892 18.3973795,4.39071084 18.3823253,3.92443976 C18.394512,3.84025904 18.4010663,3.75433735 18.4010663,3.66677711 L18.4010663,3.55013253 C18.3263072,1.1091988 17.5790241,0.361915663 16.6194458,0.0058373494 L16.6194458,0.0058373494 C15.635494,0.0058373494 14.8378253,0.803608434 14.8378253,1.78776506 L14.8378253,1.96575301 C14.827994,2.57590964 13.9709277,3.83462651 13.9709277,3.83462651 L7.43278916,10.4479337 L7.32259639,10.5837289 L7.32259639,11.9241687 L7.32259639,24.1464518 C7.32259639,24.3964337 7.52516265,24.599 7.77514458,24.599 L20.0838614,24.599 C20.9212651,24.599 21.6333193,23.9877169 21.7598976,23.1597349 C22.2438855,19.9943554 23.3549277,12.650253 23.3549277,11.9241687 Z" fill="#E3FAFF"></path>
                            <path d="M20.8458916,9.41503012 L20.3856627,9.41503012 C20.3621084,9.63572289 20.3269819,9.9248253 20.282741,10.2673855 C19.4401145,16.7840181 13.8924819,21.6634277 7.32259639,21.6633253 L7.32259639,21.6633253 L7.32259639,24.1465542 C7.32259639,24.3965361 7.52516265,24.5992048 7.77514458,24.5992048 L20.0840663,24.5992048 C20.9213675,24.5992048 21.6332169,23.9885361 21.7597952,23.160759 C22.2437831,19.9956867 23.3549277,12.6504578 23.3549277,11.9243735 C23.3549277,10.5383614 22.2315964,9.41503012 20.8458916,9.41503012 Z" fill="#CCF4FF"></path>
                        </g>
                    </g>
                    <g id="Group" fill="#000000">
                        <path d="M45.5049669,8.88855361 C41.4190643,4.20946589 35.8005302,1.14744639 29.6842963,0.266385965 C29.2690058,0.206580897 28.8833138,0.494861598 28.8234074,0.91045614 C28.763501,1.32605068 29.051883,1.7114386 29.4674776,1.77134503 C35.2239688,2.60060819 40.5127641,5.4834152 44.3596491,9.88871735 C48.2432281,14.3360858 50.3821209,20.0412865 50.3821209,25.9533723 C50.3821209,32.4796257 47.841115,38.6153216 43.2270019,43.2300429 C38.6129903,47.8447641 32.4784094,50.3861754 25.953271,50.3861754 C19.5398363,50.3861754 13.4805692,47.9192671 8.89179727,43.4397661 C8.59135283,43.1463158 8.10997271,43.1522963 7.81682651,43.4527407 C7.52347758,43.7531852 7.52935673,44.2344639 7.82980117,44.5277115 C12.7042183,49.2860663 19.1406628,51.9065419 25.9533723,51.9065419 C32.8846784,51.9065419 39.4010994,49.2069006 44.3023782,44.3049123 C49.2035556,39.4030253 51.9026901,32.8855906 51.9026901,25.953271 C51.9026901,19.6733333 49.6306043,13.6129513 45.5049669,8.88855361 Z" id="Path"></path>
                        <path d="M1.52442105,25.9533723 C1.52442105,19.4271189 4.0654269,13.291423 8.67953996,8.67670175 C13.2935517,4.06187914 19.4281326,1.52046784 25.953271,1.52046784 C26.3731228,1.52046784 26.7135049,1.18008577 26.7135049,0.760233918 C26.7135049,0.340382066 26.3731228,0 25.953271,0 C19.0219649,0 12.5055439,2.69964133 7.60426511,7.60162963 C2.70318908,12.5035166 0.00395321637,19.0209513 0.00395321637,25.9533723 C0.00395321637,31.5861988 1.77783236,36.9440234 5.13391033,41.4477505 C5.28311891,41.6480468 5.51210136,41.75377 5.74412476,41.75377 C5.90205068,41.75377 6.06139571,41.7047096 6.19783236,41.6031423 C6.53446394,41.3522651 6.604,40.8759532 6.35312281,40.5392203 C3.19419883,36.2999532 1.52442105,31.2562573 1.52442105,25.9533723 Z" id="Path"></path>
                        <path d="M20.2360078,21.7373177 L15.8018168,21.7373177 C14.6076413,21.7373177 13.6360624,22.7088967 13.6360624,23.9030721 L13.6360624,37.2164912 C13.6360624,38.4106667 14.6076413,39.3822456 15.8018168,39.3822456 L20.2360078,39.3822456 C20.9995867,39.3822456 21.6707212,38.9839844 22.0564133,38.3853255 C22.067462,38.3856296 22.078308,38.3870487 22.0894581,38.3870487 L34.2725614,38.3870487 C35.4858947,38.3870487 36.4996413,37.5165302 36.6831111,36.3171852 C36.8225887,35.4047018 37.0147758,34.1415984 37.2169981,32.7916257 C37.2792359,32.3764366 36.9930838,31.9893255 36.5777934,31.9271891 C36.1624016,31.8650526 35.7754932,32.1511033 35.7133567,32.5663938 C35.5113372,33.9146433 35.3194542,35.1761248 35.180078,36.0873918 C35.1110487,36.5389708 34.7294113,36.8666823 34.2725614,36.8666823 L22.4017622,36.8666823 L22.4017622,24.0428538 L28.7625887,17.6088421 C28.7950253,17.576 28.8244211,17.5403197 28.8503704,17.5022066 C29.0794542,17.1657778 29.8277271,16.0082963 29.8401949,15.2368109 C29.8401949,15.232655 29.8402963,15.2286004 29.8402963,15.2245458 L29.8402963,15.0483743 C29.8402963,14.5365848 30.2253801,14.1129825 30.7209513,14.0522651 C31.1679688,14.2390799 31.779501,14.675961 31.846807,16.8045146 L31.846807,16.9080078 C31.846807,16.9557505 31.8431579,17.0049123 31.8360624,17.0542768 C31.8296764,17.0983704 31.8272437,17.1429708 31.8286628,17.1873684 C31.8413333,17.582386 31.8515712,19.6864094 30.8008265,22.3152982 C30.7072671,22.5495517 30.7358519,22.814924 30.8772554,23.0237349 C31.0187602,23.2325458 31.2545341,23.3576296 31.506729,23.3576296 L35.0268148,23.3576296 C35.9770058,23.3576296 36.7500117,24.1307368 36.7500117,25.0808265 C36.7495049,25.202768 36.694768,25.8565692 36.1978791,29.2850214 C36.1376686,29.7005146 36.4257466,30.0862066 36.8412398,30.1464172 C37.2572398,30.206425 37.6425263,29.9185497 37.7026355,29.5030565 C38.2705809,25.5847096 38.2705809,25.2316569 38.2705809,25.0809279 C38.2705809,23.2922495 36.8154932,21.8371618 35.0269162,21.8371618 L32.5902144,21.8371618 C33.3246004,19.5788616 33.3641326,17.8173489 33.3501442,17.2015595 C33.3615984,17.1034386 33.3673762,17.0050136 33.3673762,16.9079064 L33.3673762,16.7924522 C33.3673762,16.7846472 33.3672749,16.7769435 33.3670721,16.7692398 C33.2951033,14.4191033 32.598425,13.1244756 31.1081637,12.5716335 C31.0235244,12.5402105 30.9340195,12.5241949 30.8437037,12.5241949 C29.4520702,12.5241949 28.3200312,13.6564366 28.3200312,15.0481715 L28.3200312,15.2123821 C28.3053333,15.4186589 27.9829942,16.0614113 27.6312593,16.5905341 L21.8380741,22.4504172 C21.4413333,22.0137388 20.8710565,21.7373177 20.2360078,21.7373177 Z M20.8812943,37.2164912 C20.8812943,37.5722807 20.5918986,37.8617778 20.2360078,37.8617778 L15.8018168,37.8617778 C15.4460273,37.8617778 15.1565302,37.5722807 15.1565302,37.2164912 L15.1565302,23.9030721 C15.1565302,23.5472827 15.4460273,23.2577856 15.8018168,23.2577856 L20.2360078,23.2577856 C20.5917973,23.2577856 20.8812943,23.5472827 20.8812943,23.9030721 L20.8812943,37.1787836 L20.8812943,37.2164912 Z" id="Shape"></path>
                    </g>
                </g>
                <g id="like-3" transform="translate(204.000000, 45.000000)" fill-rule="nonzero">
                    <g id="Group" transform="translate(1.000000, 0.000000)">
                        <ellipse id="Oval" fill="#407FFF" cx="13.5021145" cy="13.5021145" rx="13.4728916" ry="13.475006"></ellipse>
                        <path d="M20.719247,2.12210241 C23.1593855,4.56088554 24.6688373,7.93100602 24.6688373,11.653753 C24.6688373,19.0957771 18.6368313,25.128759 11.1959458,25.128759 C8.54072892,25.128759 6.06518675,24.3600723 3.97886747,23.0337651 C6.41672892,25.4702711 9.78348795,26.9771205 13.5021687,26.9771205 C20.9430542,26.9771205 26.9750602,20.9441386 26.9750602,13.5021145 C26.9750602,8.71574096 24.4795663,4.51263253 20.719247,2.12210241 Z" id="Path" fill="#406AEF"></path>
                        <g transform="translate(7.319277, 6.722892)" id="Path">
                            <path d="M3.12484337,13.5553554 L0.753126506,13.5553554 C0.337933735,13.5553554 0.00135542169,13.2187771 0.00135542169,12.8035843 L0.00135542169,5.68263253 C0.00135542169,5.26743976 0.337933735,4.93086145 0.753126506,4.93086145 L3.12484337,4.93086145 C3.54003614,4.93086145 3.87661446,5.26743976 3.87661446,5.68263253 L3.87661446,12.8035843 C3.87661446,13.2187771 3.54003614,13.5553554 3.12484337,13.5553554 Z" fill="#48D8FF"></path>
                            <path d="M3.12489759,12.138994 L0.753072289,12.138994 C0.337933735,12.138994 0.00135542169,11.8023614 0.00135542169,11.3871687 L0.00135542169,12.8035301 C0.00135542169,13.2187771 0.337933735,13.5553554 0.753072289,13.5553554 L3.12489759,13.5553554 C3.54003614,13.5553554 3.87661446,13.2187771 3.87661446,12.8035301 L3.87661446,11.3871687 C3.87661446,11.8023614 3.54009036,12.138994 3.12489759,12.138994 Z" fill="#43C5FF"></path>
                            <path d="M12.3643735,6.31279518 L12.3643735,6.31279518 C12.3643735,5.57913253 11.7696687,4.98442771 11.0360602,4.98442771 L9.15327108,4.98442771 C9.74228313,3.5106506 9.73978916,2.32449398 9.73181928,2.07764458 C9.73827108,2.03307831 9.74174096,1.98759036 9.74174096,1.94123494 L9.74174096,1.87948193 C9.70216265,0.587222892 9.30654217,0.19160241 8.79853012,0.00309036145 L8.79853012,0.00309036145 C8.27761446,0.00309036145 7.85531928,0.425439759 7.85531928,0.946463855 L7.85531928,1.04069277 C7.85011446,1.36371687 7.39637349,2.03009639 7.39637349,2.03009639 L3.93500602,5.53125904 L3.87666867,5.6031506 L3.87666867,6.31279518 L3.87666867,12.7834157 C3.87666867,12.915759 3.98390964,13.023 4.11625301,13.023 L10.6326325,13.023 C11.0759639,13.023 11.4529337,12.6993795 11.5199458,12.2610361 C11.7761747,10.585247 12.3643735,6.69719277 12.3643735,6.31279518 Z" fill="#E3FAFF"></path>
                            <path d="M11.0360602,4.98442771 L10.7924096,4.98442771 C10.7799398,5.10126506 10.7613434,5.25431928 10.7379217,5.4356747 C10.2918253,8.88565663 7.35484337,11.4688735 3.87666867,11.4688193 L3.87666867,11.4688193 L3.87666867,12.7834699 C3.87666867,12.9158133 3.98390964,13.0231084 4.11625301,13.0231084 L10.632741,13.0231084 C11.0760181,13.0231084 11.4528795,12.6998133 11.5198916,12.2615783 C11.7761205,10.5859518 12.3643735,6.6973012 12.3643735,6.31290361 C12.3643735,5.57913253 11.7696687,4.98442771 11.0360602,4.98442771 Z" fill="#CCF4FF"></path>
                        </g>
                    </g>
                    <g id="Group" fill="#000000">
                        <path d="M24.5026745,4.78614425 C22.3025731,2.26663548 19.2772086,0.61785575 15.9838519,0.143438596 C15.7602339,0.111235867 15.5525536,0.266463938 15.5202963,0.490245614 C15.488039,0.71402729 15.6433216,0.92154386 15.8671033,0.95380117 C18.9667524,1.40032749 21.8145653,2.95260819 23.8859649,5.32469396 C25.9771228,7.7194308 27.1288343,10.791462 27.1288343,13.9748928 C27.1288343,17.4890292 25.7606004,20.7928655 23.276078,23.2777154 C20.7916101,25.7625653 17.4883743,27.1310175 13.9748382,27.1310175 C10.5214503,27.1310175 7.25876803,25.8026823 4.78789084,23.3906433 C4.62611306,23.2326316 4.36690838,23.2358519 4.20906043,23.3976296 C4.05110331,23.5594074 4.05426901,23.8185575 4.21604678,23.97646 C6.84073294,26.5386511 10.3065107,27.9496764 13.9748928,27.9496764 C17.7071345,27.9496764 21.2159766,26.4960234 23.8551267,23.8564912 C26.4942222,21.2170136 27.9476023,17.7076257 27.9476023,13.9748382 C27.9476023,10.5933333 26.7241715,7.33005068 24.5026745,4.78614425 Z" id="Path"></path>
                        <path d="M0.820842105,13.9748928 C0.820842105,10.4607563 2.18907602,7.15692008 4.67359844,4.67207018 C7.15806628,2.18716569 10.4613021,0.81871345 13.9748382,0.81871345 C14.2009123,0.81871345 14.3841949,0.635430799 14.3841949,0.409356725 C14.3841949,0.183282651 14.2009123,0 13.9748382,0 C10.2425965,0 6.73375439,1.45365302 4.09460429,4.09318519 C1.45556335,6.73266277 0.00212865497,10.2420507 0.00212865497,13.9748928 C0.00212865497,17.0079532 0.957294347,19.8929357 2.76441326,22.3180195 C2.84475634,22.4258713 2.96805458,22.4827992 3.09299025,22.4827992 C3.17802729,22.4827992 3.26382846,22.4563821 3.33729435,22.401692 C3.5185575,22.2666043 3.556,22.0101287 3.42091228,21.8288109 C1.71995322,19.5461287 0.820842105,16.8302924 0.820842105,13.9748928 Z" id="Path"></path>
                        <path d="M10.8963119,11.7047096 L8.50867057,11.7047096 C7.86565302,11.7047096 7.34249513,12.2278674 7.34249513,12.870885 L7.34249513,20.0396491 C7.34249513,20.6826667 7.86565302,21.2058246 8.50867057,21.2058246 L10.8963119,21.2058246 C11.3074698,21.2058246 11.6688499,20.9913762 11.8765302,20.6690214 C11.8824795,20.6691852 11.8883197,20.6699493 11.8943236,20.6699493 L18.4544561,20.6699493 C19.1077895,20.6699493 19.653653,20.2012086 19.7524444,19.5554074 C19.8275478,19.0640702 19.9310331,18.3839376 20.039922,17.6570292 C20.0734347,17.4334659 19.9193528,17.2250214 19.6957349,17.1915634 C19.4720624,17.1581053 19.2637271,17.3121326 19.230269,17.5357505 C19.1214893,18.261731 19.0181676,18.9409903 18.9431189,19.4316725 C18.9059493,19.6748304 18.7004522,19.8512904 18.4544561,19.8512904 L12.0624873,19.8512904 L12.0624873,12.946152 L15.4875478,9.48168421 C15.5050136,9.464 15.5208421,9.44478752 15.5348148,9.42426511 C15.6581676,9.24311111 16.0610838,8.61985185 16.0677973,8.20443665 C16.0677973,8.20219883 16.0678519,8.20001559 16.0678519,8.19783236 L16.0678519,8.10297076 C16.0678519,7.82739181 16.2752047,7.59929825 16.5420507,7.56660429 C16.7827524,7.66719688 17.112039,7.90244055 17.1482807,9.0485848 L17.1482807,9.10431189 C17.1482807,9.13001949 17.1463158,9.15649123 17.1424951,9.18307212 C17.1390565,9.20681481 17.1377466,9.23083041 17.1385107,9.25473684 C17.1453333,9.4674386 17.150846,10.6003743 16.5850604,12.0159298 C16.5346823,12.1420663 16.5500741,12.2849591 16.6262144,12.3973957 C16.7024094,12.5098324 16.8293645,12.5771852 16.9651618,12.5771852 L18.8605926,12.5771852 C19.3722339,12.5771852 19.7884678,12.9934737 19.7884678,13.5050604 C19.7881949,13.5707212 19.7587212,13.922768 19.4911657,15.7688577 C19.4587446,15.9925848 19.6138635,16.2002651 19.8375906,16.2326862 C20.0615906,16.2649981 20.2690526,16.1099883 20.3014191,15.8862612 C20.6072359,13.7763821 20.6072359,13.5862768 20.6072359,13.505115 C20.6072359,12.5419805 19.8237271,11.7584717 18.8606472,11.7584717 L17.548577,11.7584717 C17.9440156,10.5424639 17.9653021,9.59395712 17.95777,9.26237817 C17.9639376,9.20954386 17.9670487,9.15654581 17.9670487,9.10425731 L17.9670487,9.04208967 C17.9670487,9.03788694 17.9669942,9.03373879 17.966885,9.02959064 C17.9281326,7.76413255 17.5529981,7.06702534 16.7505497,6.76934113 C16.7049747,6.75242105 16.6567797,6.74379727 16.6081481,6.74379727 C15.858807,6.74379727 15.2492476,7.35346589 15.2492476,8.1028616 L15.2492476,8.19128265 C15.2413333,8.30235478 15.0677661,8.64845224 14.8783704,8.93336452 L11.758963,12.0886862 C11.5453333,11.8535517 11.2382612,11.7047096 10.8963119,11.7047096 Z M11.2437739,20.0396491 C11.2437739,20.2312281 11.0879454,20.3871111 10.8963119,20.3871111 L8.50867057,20.3871111 C8.31709162,20.3871111 8.16120858,20.2312281 8.16120858,20.0396491 L8.16120858,12.870885 C8.16120858,12.679306 8.31709162,12.523423 8.50867057,12.523423 L10.8963119,12.523423 C11.0878908,12.523423 11.2437739,12.679306 11.2437739,12.870885 L11.2437739,20.019345 L11.2437739,20.0396491 Z" id="Shape"></path>
                    </g>
                </g>
                <g id="like-4" transform="translate(312.000000, 161.000000)" fill-rule="nonzero">
                    <g id="Group" transform="translate(1.000000, 0.000000)">
                        <ellipse id="Oval" fill="#407FFF" cx="18.5028976" cy="18.5028976" rx="18.4628514" ry="18.465749"></ellipse>
                        <path d="M28.3930422,2.90806627 C31.7369357,6.25010241 33.8054438,10.8684157 33.8054438,15.9699578 C33.8054438,26.1682871 25.5393614,34.4357068 15.3425924,34.4357068 C11.7039618,34.4357068 8.31155221,33.3823213 5.45252209,31.5647892 C8.79329518,34.9037048 13.407002,36.9686466 18.5029719,36.9686466 C28.699741,36.9686466 36.9658233,28.7012269 36.9658233,18.5028976 C36.9658233,11.9437932 33.5460723,6.18397791 28.3930422,2.90806627 Z" id="Path" fill="#406AEF"></path>
                        <g transform="translate(10.030120, 9.212851)" id="Path">
                            <path d="M4.28219277,18.5758574 L1.03206225,18.5758574 C0.463094378,18.5758574 0.00185742972,18.1146205 0.00185742972,17.5456526 L0.00185742972,7.78731124 C0.00185742972,7.21834337 0.463094378,6.75710643 1.03206225,6.75710643 L4.28219277,6.75710643 C4.85116064,6.75710643 5.31239759,7.21834337 5.31239759,7.78731124 L5.31239759,17.5456526 C5.31239759,18.1146205 4.85116064,18.5758574 4.28219277,18.5758574 Z" fill="#48D8FF"></path>
                            <path d="M4.28226707,16.6349177 L1.03198795,16.6349177 C0.463094378,16.6349177 0.00185742972,16.1736064 0.00185742972,15.6046386 L0.00185742972,17.5455783 C0.00185742972,18.1146205 0.463094378,18.5758574 1.03198795,18.5758574 L4.28226707,18.5758574 C4.85116064,18.5758574 5.31239759,18.1146205 5.31239759,17.5455783 L5.31239759,15.6046386 C5.31239759,16.1736064 4.85123494,16.6349177 4.28226707,16.6349177 Z" fill="#43C5FF"></path>
                            <path d="M16.9437711,8.65086747 L16.9437711,8.65086747 C16.9437711,7.64547791 16.1288052,6.83051205 15.12349,6.83051205 L12.5433715,6.83051205 C13.3505361,4.81089157 13.3471185,3.18541767 13.3361968,2.84714257 C13.3450382,2.78607028 13.3497932,2.72373494 13.3497932,2.66021084 L13.3497932,2.57558635 C13.2955562,0.804712851 12.7534096,0.262566265 12.057245,0.00423493976 L12.057245,0.00423493976 C11.3433976,0.00423493976 10.7646968,0.58301004 10.7646968,1.29700602 L10.7646968,1.42613454 C10.7575643,1.86879719 10.1357711,2.78198394 10.1357711,2.78198394 L5.39241566,7.57987349 L5.31247189,7.67839157 L5.31247189,8.65086747 L5.31247189,17.5180141 C5.31247189,17.6993735 5.45943173,17.8463333 5.64079116,17.8463333 L14.5706446,17.8463333 C15.1781727,17.8463333 15.694761,17.4028534 15.7865924,16.8021606 C16.1377209,14.5057088 16.9437711,9.17763454 16.9437711,8.65086747 Z" fill="#E3FAFF"></path>
                            <path d="M15.12349,6.83051205 L14.7895984,6.83051205 C14.77251,6.99062249 14.7470261,7.20036345 14.7149297,7.44888755 C14.1036124,12.1766406 10.0788594,15.7166044 5.31247189,15.7165301 L5.31247189,15.7165301 L5.31247189,17.5180884 C5.31247189,17.6994478 5.45943173,17.8464819 5.64079116,17.8464819 L14.5707932,17.8464819 C15.178247,17.8464819 15.6946867,17.4034478 15.7865181,16.8029036 C16.1376466,14.5066747 16.9437711,9.17778313 16.9437711,8.65101606 C16.9437711,7.64547791 16.1288052,6.83051205 15.12349,6.83051205 Z" fill="#CCF4FF"></path>
                        </g>
                    </g>
                    <g id="Group" fill="#000000">
                        <path d="M33.2536296,6.49548148 C30.2677778,3.07614815 26.1619259,0.838518519 21.6923704,0.194666667 C21.3888889,0.150962963 21.107037,0.36162963 21.0632593,0.665333333 C21.0194815,0.969037037 21.2302222,1.25066667 21.5339259,1.29444444 C25.7405926,1.90044444 29.6054815,4.00711111 32.4166667,7.22637037 C35.2546667,10.4763704 36.8177037,14.6455556 36.8177037,18.9659259 C36.8177037,23.7351111 34.9608148,28.2188889 31.588963,31.5911852 C28.2171852,34.9634815 23.7342222,36.8206667 18.9658519,36.8206667 C14.2791111,36.8206667 9.85118519,35.0179259 6.49785185,31.7444444 C6.2782963,31.53 5.92651852,31.5343704 5.7122963,31.7539259 C5.49792593,31.9734815 5.50222222,32.3251852 5.72177778,32.5394815 C9.28385185,36.0167407 13.9874074,37.9317037 18.9659259,37.9317037 C24.0311111,37.9317037 28.7931111,35.9588889 32.3748148,32.3766667 C35.9564444,28.7945185 37.9288889,24.0317778 37.9288889,18.9658519 C37.9288889,14.3766667 36.2685185,9.94792593 33.2536296,6.49548148 Z" id="Path"></path>
                        <path d="M1.114,18.9659259 C1.114,14.1967407 2.97088889,9.71296296 6.34274074,6.34066667 C9.71451852,2.9682963 14.1974815,1.11111111 18.9658519,1.11111111 C19.2726667,1.11111111 19.5214074,0.86237037 19.5214074,0.555555556 C19.5214074,0.248740741 19.2726667,0 18.9658519,0 C13.9006667,0 9.13866667,1.97281481 5.55696296,5.55503704 C1.97540741,9.13718519 0.00288888889,13.8999259 0.00288888889,18.9659259 C0.00288888889,23.0822222 1.29918519,26.9975556 3.7517037,30.2887407 C3.86074074,30.4351111 4.02807407,30.5123704 4.19762963,30.5123704 C4.31303704,30.5123704 4.42948148,30.4765185 4.52918519,30.4022963 C4.77518519,30.218963 4.826,29.8708889 4.64266667,29.6248148 C2.33422222,26.5268889 1.114,22.8411111 1.114,18.9659259 Z" id="Path"></path>
                        <path d="M14.7878519,15.884963 L11.5474815,15.884963 C10.6748148,15.884963 9.96481481,16.594963 9.96481481,17.4676296 L9.96481481,27.1966667 C9.96481481,28.0693333 10.6748148,28.7793333 11.5474815,28.7793333 L14.7878519,28.7793333 C15.3458519,28.7793333 15.8362963,28.4882963 16.1181481,28.0508148 C16.1262222,28.051037 16.1341481,28.0520741 16.1422963,28.0520741 L25.0453333,28.0520741 C25.932,28.0520741 26.6728148,27.4159259 26.8068889,26.5394815 C26.9088148,25.8726667 27.0492593,24.9496296 27.197037,23.9631111 C27.2425185,23.6597037 27.0334074,23.3768148 26.7299259,23.3314074 C26.4263704,23.286 26.1436296,23.495037 26.0982222,23.7985185 C25.9505926,24.7837778 25.8103704,25.7056296 25.7085185,26.3715556 C25.6580741,26.7015556 25.3791852,26.941037 25.0453333,26.941037 L16.3705185,26.941037 L16.3705185,17.5697778 L21.0188148,12.868 C21.0425185,12.844 21.064,12.8179259 21.082963,12.7900741 C21.2503704,12.5442222 21.7971852,11.6983704 21.8062963,11.1345926 C21.8062963,11.1315556 21.8063704,11.1285926 21.8063704,11.1256296 L21.8063704,10.9968889 C21.8063704,10.6228889 22.0877778,10.3133333 22.4499259,10.268963 C22.7765926,10.4054815 23.2234815,10.7247407 23.2726667,12.2802222 L23.2726667,12.3558519 C23.2726667,12.3907407 23.27,12.4266667 23.2648148,12.4627407 C23.2601481,12.494963 23.2583704,12.5275556 23.2594074,12.56 C23.2686667,12.8486667 23.2761481,14.3862222 22.5082963,16.3073333 C22.4399259,16.4785185 22.4608148,16.6724444 22.5641481,16.825037 C22.6675556,16.9776296 22.8398519,17.069037 23.0241481,17.069037 L25.5965185,17.069037 C26.2908889,17.069037 26.8557778,17.634 26.8557778,18.3282963 C26.8554074,18.4174074 26.8154074,18.8951852 26.4522963,21.4005926 C26.4082963,21.7042222 26.6188148,21.9860741 26.9224444,22.0300741 C27.2264444,22.0739259 27.508,21.8635556 27.5519259,21.5599259 C27.966963,18.6965185 27.966963,18.4385185 27.966963,18.3283704 C27.966963,17.0212593 26.9036296,15.9579259 25.5965926,15.9579259 L23.8159259,15.9579259 C24.3525926,14.3076296 24.3814815,13.0203704 24.3712593,12.5703704 C24.3796296,12.4986667 24.3838519,12.4267407 24.3838519,12.3557778 L24.3838519,12.2714074 C24.3838519,12.2657037 24.3837778,12.2600741 24.3836296,12.2544444 C24.331037,10.537037 23.8219259,9.59096296 22.7328889,9.18696296 C22.671037,9.164 22.6056296,9.1522963 22.5396296,9.1522963 C21.5226667,9.1522963 20.6954074,9.9797037 20.6954074,10.9967407 L20.6954074,11.1167407 C20.6846667,11.2674815 20.4491111,11.7371852 20.1920741,12.1238519 L15.9585926,16.4060741 C15.6686667,16.086963 15.2519259,15.884963 14.7878519,15.884963 Z M15.2594074,27.1966667 C15.2594074,27.4566667 15.0479259,27.6682222 14.7878519,27.6682222 L11.5474815,27.6682222 C11.2874815,27.6682222 11.0759259,27.4566667 11.0759259,27.1966667 L11.0759259,17.4676296 C11.0759259,17.2076296 11.2874815,16.9960741 11.5474815,16.9960741 L14.7878519,16.9960741 C15.0478519,16.9960741 15.2594074,17.2076296 15.2594074,17.4676296 L15.2594074,27.1691111 L15.2594074,27.1966667 Z" id="Shape"></path>
                    </g>
                </g>
                <g id="like-5" transform="translate(32.000000, 144.000000)" fill-rule="nonzero">
                    <g id="Group" transform="translate(1.000000, 1.000000)">
                        <ellipse id="Oval" fill="#407FFF" cx="24.003759" cy="24.003759" rx="23.9518072" ry="23.9555663"></ellipse>
                        <path d="M36.8342169,3.77262651 C41.172241,8.10824096 43.8557108,14.0995663 43.8557108,20.7177831 C43.8557108,33.9480482 33.1321446,44.6733494 19.9039036,44.6733494 C15.1835181,44.6733494 10.7825542,43.3067952 7.07354217,40.9489157 C11.4075181,45.2804819 17.3928675,47.9593253 24.0038554,47.9593253 C37.2320964,47.9593253 47.9556627,37.2340241 47.9556627,24.003759 C47.9556627,15.4946506 43.5192289,8.02245783 36.8342169,3.77262651 Z" id="Path" fill="#406AEF"></path>
                        <g transform="translate(13.012048, 11.951807)" id="Path">
                            <path d="M5.55527711,24.0984096 L1.33889157,24.0984096 C0.600771084,24.0984096 0.00240963855,23.5000482 0.00240963855,22.7619277 L0.00240963855,10.1024578 C0.00240963855,9.36433735 0.600771084,8.7659759 1.33889157,8.7659759 L5.55527711,8.7659759 C6.29339759,8.7659759 6.89175904,9.36433735 6.89175904,10.1024578 L6.89175904,22.7619277 C6.89175904,23.5000482 6.29339759,24.0984096 5.55527711,24.0984096 Z" fill="#48D8FF"></path>
                            <path d="M5.55537349,21.5804337 L1.33879518,21.5804337 C0.600771084,21.5804337 0.00240963855,20.9819759 0.00240963855,20.2438554 L0.00240963855,22.7618313 C0.00240963855,23.5000482 0.600771084,24.0984096 1.33879518,24.0984096 L5.55537349,24.0984096 C6.29339759,24.0984096 6.89175904,23.5000482 6.89175904,22.7618313 L6.89175904,20.2438554 C6.89175904,20.9819759 6.29349398,21.5804337 5.55537349,21.5804337 Z" fill="#43C5FF"></path>
                            <path d="M21.9811084,11.222747 L21.9811084,11.222747 C21.9811084,9.91845783 20.9238554,8.86120482 19.6196627,8.86120482 L16.2724819,8.86120482 C17.3196145,6.24115663 17.3151807,4.13243373 17.301012,3.69359036 C17.3124819,3.61436145 17.3186506,3.53349398 17.3186506,3.45108434 L17.3186506,3.3413012 C17.2482892,1.04395181 16.5449639,0.340626506 15.6418313,0.0054939759 L15.6418313,0.0054939759 C14.715759,0.0054939759 13.965012,0.756337349 13.965012,1.68260241 L13.965012,1.85012048 C13.955759,2.42438554 13.1491084,3.60906024 13.1491084,3.60906024 L6.99556627,9.8333494 L6.89185542,9.96115663 L6.89185542,11.222747 L6.89185542,22.7260723 C6.89185542,22.9613494 7.08250602,23.152 7.31778313,23.152 L18.9024578,23.152 C19.6906024,23.152 20.3607711,22.5766747 20.4799036,21.7973976 C20.9354217,18.8182169 21.9811084,11.9061205 21.9811084,11.222747 Z" fill="#E3FAFF"></path>
                            <path d="M19.6196627,8.86120482 L19.186506,8.86120482 C19.1643373,9.06891566 19.1312771,9.34101205 19.0896386,9.66342169 C18.2965783,15.7967229 13.0752771,20.3891084 6.89185542,20.389012 L6.89185542,20.389012 L6.89185542,22.7261687 C6.89185542,22.9614458 7.08250602,23.1521928 7.31778313,23.1521928 L18.9026506,23.1521928 C19.6906988,23.1521928 20.3606747,22.5774458 20.4798072,21.7983614 C20.9353253,18.8194699 21.9811084,11.9063133 21.9811084,11.2229398 C21.9811084,9.91845783 20.9238554,8.86120482 19.6196627,8.86120482 Z" fill="#CCF4FF"></path>
                        </g>
                    </g>
                    <g id="Group" fill="#000000">
                        <path d="M43.7547758,8.54668616 C39.8260234,4.04756335 34.4235867,1.10331384 28.5425926,0.256140351 C28.1432749,0.198635478 27.7724172,0.47582846 27.7148148,0.875438596 C27.6572125,1.27504873 27.9345029,1.64561404 28.3341131,1.70321637 C33.8692008,2.5005848 38.9545809,5.27251462 42.6535088,9.50838207 C46.3877193,13.7846979 48.444347,19.2704678 48.444347,24.9551657 C48.444347,31.2304094 46.0010721,37.130117 41.564425,41.5673489 C37.1278752,46.0045809 31.2292398,48.4482456 24.9550682,48.4482456 C18.7883041,48.4482456 12.9620858,46.0762183 8.54980507,41.7690058 C8.26091618,41.4868421 7.79805068,41.4925926 7.51617934,41.7814815 C7.23411306,42.0703704 7.23976608,42.5331384 7.52865497,42.8151072 C12.2155945,47.3904483 18.4044834,49.9101365 24.9551657,49.9101365 C31.619883,49.9101365 37.8856725,47.3143275 42.5984405,42.6008772 C47.3111111,37.8875244 49.9064327,31.6207602 49.9064327,24.9550682 C49.9064327,18.9166667 47.7217349,13.0893762 43.7547758,8.54668616 Z" id="Path"></path>
                        <path d="M1.46578947,24.9551657 C1.46578947,18.679922 3.90906433,12.7802144 8.3457115,8.34298246 C12.7822612,3.90565302 18.6808967,1.4619883 24.9550682,1.4619883 C25.3587719,1.4619883 25.6860624,1.13469786 25.6860624,0.730994152 C25.6860624,0.327290448 25.3587719,0 24.9550682,0 C18.2903509,0 12.0245614,2.59580897 7.31179337,7.30925926 C2.59922027,12.0226121 0.00380116959,18.2893762 0.00380116959,24.9551657 C0.00380116959,30.371345 1.70945419,35.5230994 4.93645224,39.8536062 C5.07992203,40.0461988 5.30009747,40.1478558 5.52319688,40.1478558 C5.67504873,40.1478558 5.82826511,40.1006823 5.95945419,40.0030214 C6.2831384,39.7617934 6.35,39.3038012 6.10877193,38.9800195 C3.07134503,34.9038012 1.46578947,30.0540936 1.46578947,24.9551657 Z" id="Path"></path>
                        <path d="M19.4576998,20.9012671 L15.1940546,20.9012671 C14.045809,20.9012671 13.1115984,21.8354776 13.1115984,22.9837232 L13.1115984,35.7850877 C13.1115984,36.9333333 14.045809,37.8675439 15.1940546,37.8675439 L19.4576998,37.8675439 C20.1919103,37.8675439 20.837232,37.4846004 21.2080897,36.9089669 C21.2187135,36.9092593 21.2291423,36.9106238 21.2398635,36.9106238 L32.954386,36.9106238 C34.1210526,36.9106238 35.095809,36.0735867 35.2722222,34.9203704 C35.4063353,34.0429825 35.5911306,32.82846 35.785575,31.5304094 C35.8454191,31.1311891 35.5702729,30.7589669 35.1709552,30.6992203 C34.77154,30.6394737 34.3995127,30.9145224 34.3397661,31.3138402 C34.1455166,32.6102339 33.9610136,33.8231969 33.8269981,34.6994152 C33.7606238,35.1336257 33.3936647,35.4487329 32.954386,35.4487329 L21.5401559,35.4487329 L21.5401559,23.1181287 L27.6563353,16.9315789 C27.6875244,16.9 27.7157895,16.865692 27.7407407,16.8290448 C27.9610136,16.5055556 28.6805068,15.3925926 28.6924951,14.6507797 C28.6924951,14.6467836 28.6925926,14.642885 28.6925926,14.6389864 L28.6925926,14.4695906 C28.6925926,13.9774854 29.0628655,13.5701754 29.5393762,13.5117934 C29.9692008,13.691423 30.5572125,14.111501 30.6219298,16.1581871 L30.6219298,16.2576998 C30.6219298,16.3036062 30.6184211,16.3508772 30.6115984,16.3983431 C30.6054581,16.4407407 30.6031189,16.4836257 30.6044834,16.5263158 C30.6166667,16.9061404 30.6265107,18.9292398 29.6161793,21.4570175 C29.5262183,21.6822612 29.5537037,21.9374269 29.6896686,22.1382066 C29.825731,22.3389864 30.0524366,22.4592593 30.2949318,22.4592593 L33.6796296,22.4592593 C34.5932749,22.4592593 35.3365497,23.2026316 35.3365497,24.1161793 C35.3360624,24.2334308 35.2834308,24.8620858 34.805653,28.1586745 C34.7477583,28.5581871 35.0247563,28.9290448 35.424269,28.9869396 C35.824269,29.0446394 36.1947368,28.7678363 36.2525341,28.3683236 C36.7986355,24.6006823 36.7986355,24.2612086 36.7986355,24.1162768 C36.7986355,22.3963938 35.3995127,20.997271 33.6797271,20.997271 L31.3367446,20.997271 C32.042885,18.8258285 32.0808967,17.1320663 32.0674464,16.539961 C32.07846,16.445614 32.0840156,16.3509747 32.0840156,16.2576023 L32.0840156,16.1465887 C32.0840156,16.1390838 32.0839181,16.1316764 32.0837232,16.124269 C32.0145224,13.8645224 31.3446394,12.6196881 29.9116959,12.0881092 C29.8303119,12.0578947 29.7442495,12.0424951 29.6574074,12.0424951 C28.3192982,12.0424951 27.2307992,13.1311891 27.2307992,14.4693957 L27.2307992,14.6272904 C27.2166667,14.8256335 26.9067251,15.4436647 26.5685185,15.9524366 L20.9981481,21.5869396 C20.6166667,21.1670565 20.0683236,20.9012671 19.4576998,20.9012671 Z M20.0781676,35.7850877 C20.0781676,36.127193 19.7999025,36.4055556 19.4576998,36.4055556 L15.1940546,36.4055556 C14.8519493,36.4055556 14.5735867,36.127193 14.5735867,35.7850877 L14.5735867,22.9837232 C14.5735867,22.6416179 14.8519493,22.3632554 15.1940546,22.3632554 L19.4576998,22.3632554 C19.7998051,22.3632554 20.0781676,22.6416179 20.0781676,22.9837232 L20.0781676,35.7488304 L20.0781676,35.7850877 Z" id="Shape"></path>
                    </g>
                </g>
                <g id="like-6" transform="translate(160.000000, 125.000000)" fill-rule="nonzero">
                    <g id="Group" transform="translate(1.000000, 0.000000)">
                        <ellipse id="Oval" fill="#407FFF" cx="13.5021145" cy="13.5021145" rx="13.4728916" ry="13.475006"></ellipse>
                        <path d="M20.719247,2.12210241 C23.1593855,4.56088554 24.6688373,7.93100602 24.6688373,11.653753 C24.6688373,19.0957771 18.6368313,25.128759 11.1959458,25.128759 C8.54072892,25.128759 6.06518675,24.3600723 3.97886747,23.0337651 C6.41672892,25.4702711 9.78348795,26.9771205 13.5021687,26.9771205 C20.9430542,26.9771205 26.9750602,20.9441386 26.9750602,13.5021145 C26.9750602,8.71574096 24.4795663,4.51263253 20.719247,2.12210241 Z" id="Path" fill="#406AEF"></path>
                        <g transform="translate(7.319277, 6.722892)" id="Path">
                            <path d="M3.12484337,13.5553554 L0.753126506,13.5553554 C0.337933735,13.5553554 0.00135542169,13.2187771 0.00135542169,12.8035843 L0.00135542169,5.68263253 C0.00135542169,5.26743976 0.337933735,4.93086145 0.753126506,4.93086145 L3.12484337,4.93086145 C3.54003614,4.93086145 3.87661446,5.26743976 3.87661446,5.68263253 L3.87661446,12.8035843 C3.87661446,13.2187771 3.54003614,13.5553554 3.12484337,13.5553554 Z" fill="#48D8FF"></path>
                            <path d="M3.12489759,12.138994 L0.753072289,12.138994 C0.337933735,12.138994 0.00135542169,11.8023614 0.00135542169,11.3871687 L0.00135542169,12.8035301 C0.00135542169,13.2187771 0.337933735,13.5553554 0.753072289,13.5553554 L3.12489759,13.5553554 C3.54003614,13.5553554 3.87661446,13.2187771 3.87661446,12.8035301 L3.87661446,11.3871687 C3.87661446,11.8023614 3.54009036,12.138994 3.12489759,12.138994 Z" fill="#43C5FF"></path>
                            <path d="M12.3643735,6.31279518 L12.3643735,6.31279518 C12.3643735,5.57913253 11.7696687,4.98442771 11.0360602,4.98442771 L9.15327108,4.98442771 C9.74228313,3.5106506 9.73978916,2.32449398 9.73181928,2.07764458 C9.73827108,2.03307831 9.74174096,1.98759036 9.74174096,1.94123494 L9.74174096,1.87948193 C9.70216265,0.587222892 9.30654217,0.19160241 8.79853012,0.00309036145 L8.79853012,0.00309036145 C8.27761446,0.00309036145 7.85531928,0.425439759 7.85531928,0.946463855 L7.85531928,1.04069277 C7.85011446,1.36371687 7.39637349,2.03009639 7.39637349,2.03009639 L3.93500602,5.53125904 L3.87666867,5.6031506 L3.87666867,6.31279518 L3.87666867,12.7834157 C3.87666867,12.915759 3.98390964,13.023 4.11625301,13.023 L10.6326325,13.023 C11.0759639,13.023 11.4529337,12.6993795 11.5199458,12.2610361 C11.7761747,10.585247 12.3643735,6.69719277 12.3643735,6.31279518 Z" fill="#E3FAFF"></path>
                            <path d="M11.0360602,4.98442771 L10.7924096,4.98442771 C10.7799398,5.10126506 10.7613434,5.25431928 10.7379217,5.4356747 C10.2918253,8.88565663 7.35484337,11.4688735 3.87666867,11.4688193 L3.87666867,11.4688193 L3.87666867,12.7834699 C3.87666867,12.9158133 3.98390964,13.0231084 4.11625301,13.0231084 L10.632741,13.0231084 C11.0760181,13.0231084 11.4528795,12.6998133 11.5198916,12.2615783 C11.7761205,10.5859518 12.3643735,6.6973012 12.3643735,6.31290361 C12.3643735,5.57913253 11.7696687,4.98442771 11.0360602,4.98442771 Z" fill="#CCF4FF"></path>
                        </g>
                    </g>
                    <g id="Group" fill="#000000">
                        <path d="M24.5026745,4.78614425 C22.3025731,2.26663548 19.2772086,0.61785575 15.9838519,0.143438596 C15.7602339,0.111235867 15.5525536,0.266463938 15.5202963,0.490245614 C15.488039,0.71402729 15.6433216,0.92154386 15.8671033,0.95380117 C18.9667524,1.40032749 21.8145653,2.95260819 23.8859649,5.32469396 C25.9771228,7.7194308 27.1288343,10.791462 27.1288343,13.9748928 C27.1288343,17.4890292 25.7606004,20.7928655 23.276078,23.2777154 C20.7916101,25.7625653 17.4883743,27.1310175 13.9748382,27.1310175 C10.5214503,27.1310175 7.25876803,25.8026823 4.78789084,23.3906433 C4.62611306,23.2326316 4.36690838,23.2358519 4.20906043,23.3976296 C4.05110331,23.5594074 4.05426901,23.8185575 4.21604678,23.97646 C6.84073294,26.5386511 10.3065107,27.9496764 13.9748928,27.9496764 C17.7071345,27.9496764 21.2159766,26.4960234 23.8551267,23.8564912 C26.4942222,21.2170136 27.9476023,17.7076257 27.9476023,13.9748382 C27.9476023,10.5933333 26.7241715,7.33005068 24.5026745,4.78614425 Z" id="Path"></path>
                        <path d="M0.820842105,13.9748928 C0.820842105,10.4607563 2.18907602,7.15692008 4.67359844,4.67207018 C7.15806628,2.18716569 10.4613021,0.81871345 13.9748382,0.81871345 C14.2009123,0.81871345 14.3841949,0.635430799 14.3841949,0.409356725 C14.3841949,0.183282651 14.2009123,0 13.9748382,0 C10.2425965,0 6.73375439,1.45365302 4.09460429,4.09318519 C1.45556335,6.73266277 0.00212865497,10.2420507 0.00212865497,13.9748928 C0.00212865497,17.0079532 0.957294347,19.8929357 2.76441326,22.3180195 C2.84475634,22.4258713 2.96805458,22.4827992 3.09299025,22.4827992 C3.17802729,22.4827992 3.26382846,22.4563821 3.33729435,22.401692 C3.5185575,22.2666043 3.556,22.0101287 3.42091228,21.8288109 C1.71995322,19.5461287 0.820842105,16.8302924 0.820842105,13.9748928 Z" id="Path"></path>
                        <path d="M10.8963119,11.7047096 L8.50867057,11.7047096 C7.86565302,11.7047096 7.34249513,12.2278674 7.34249513,12.870885 L7.34249513,20.0396491 C7.34249513,20.6826667 7.86565302,21.2058246 8.50867057,21.2058246 L10.8963119,21.2058246 C11.3074698,21.2058246 11.6688499,20.9913762 11.8765302,20.6690214 C11.8824795,20.6691852 11.8883197,20.6699493 11.8943236,20.6699493 L18.4544561,20.6699493 C19.1077895,20.6699493 19.653653,20.2012086 19.7524444,19.5554074 C19.8275478,19.0640702 19.9310331,18.3839376 20.039922,17.6570292 C20.0734347,17.4334659 19.9193528,17.2250214 19.6957349,17.1915634 C19.4720624,17.1581053 19.2637271,17.3121326 19.230269,17.5357505 C19.1214893,18.261731 19.0181676,18.9409903 18.9431189,19.4316725 C18.9059493,19.6748304 18.7004522,19.8512904 18.4544561,19.8512904 L12.0624873,19.8512904 L12.0624873,12.946152 L15.4875478,9.48168421 C15.5050136,9.464 15.5208421,9.44478752 15.5348148,9.42426511 C15.6581676,9.24311111 16.0610838,8.61985185 16.0677973,8.20443665 C16.0677973,8.20219883 16.0678519,8.20001559 16.0678519,8.19783236 L16.0678519,8.10297076 C16.0678519,7.82739181 16.2752047,7.59929825 16.5420507,7.56660429 C16.7827524,7.66719688 17.112039,7.90244055 17.1482807,9.0485848 L17.1482807,9.10431189 C17.1482807,9.13001949 17.1463158,9.15649123 17.1424951,9.18307212 C17.1390565,9.20681481 17.1377466,9.23083041 17.1385107,9.25473684 C17.1453333,9.4674386 17.150846,10.6003743 16.5850604,12.0159298 C16.5346823,12.1420663 16.5500741,12.2849591 16.6262144,12.3973957 C16.7024094,12.5098324 16.8293645,12.5771852 16.9651618,12.5771852 L18.8605926,12.5771852 C19.3722339,12.5771852 19.7884678,12.9934737 19.7884678,13.5050604 C19.7881949,13.5707212 19.7587212,13.922768 19.4911657,15.7688577 C19.4587446,15.9925848 19.6138635,16.2002651 19.8375906,16.2326862 C20.0615906,16.2649981 20.2690526,16.1099883 20.3014191,15.8862612 C20.6072359,13.7763821 20.6072359,13.5862768 20.6072359,13.505115 C20.6072359,12.5419805 19.8237271,11.7584717 18.8606472,11.7584717 L17.548577,11.7584717 C17.9440156,10.5424639 17.9653021,9.59395712 17.95777,9.26237817 C17.9639376,9.20954386 17.9670487,9.15654581 17.9670487,9.10425731 L17.9670487,9.04208967 C17.9670487,9.03788694 17.9669942,9.03373879 17.966885,9.02959064 C17.9281326,7.76413255 17.5529981,7.06702534 16.7505497,6.76934113 C16.7049747,6.75242105 16.6567797,6.74379727 16.6081481,6.74379727 C15.858807,6.74379727 15.2492476,7.35346589 15.2492476,8.1028616 L15.2492476,8.19128265 C15.2413333,8.30235478 15.0677661,8.64845224 14.8783704,8.93336452 L11.758963,12.0886862 C11.5453333,11.8535517 11.2382612,11.7047096 10.8963119,11.7047096 Z M11.2437739,20.0396491 C11.2437739,20.2312281 11.0879454,20.3871111 10.8963119,20.3871111 L8.50867057,20.3871111 C8.31709162,20.3871111 8.16120858,20.2312281 8.16120858,20.0396491 L8.16120858,12.870885 C8.16120858,12.679306 8.31709162,12.523423 8.50867057,12.523423 L10.8963119,12.523423 C11.0878908,12.523423 11.2437739,12.679306 11.2437739,12.870885 L11.2437739,20.019345 L11.2437739,20.0396491 Z" id="Shape"></path>
                    </g>
                </g>
                <g id="like-7" transform="translate(317.000000, 26.000000)" fill-rule="nonzero">
                    <g id="Group" transform="translate(1.000000, 0.000000)">
                        <ellipse id="Oval" fill="#407FFF" cx="13.5021145" cy="13.5021145" rx="13.4728916" ry="13.475006"></ellipse>
                        <path d="M20.719247,2.12210241 C23.1593855,4.56088554 24.6688373,7.93100602 24.6688373,11.653753 C24.6688373,19.0957771 18.6368313,25.128759 11.1959458,25.128759 C8.54072892,25.128759 6.06518675,24.3600723 3.97886747,23.0337651 C6.41672892,25.4702711 9.78348795,26.9771205 13.5021687,26.9771205 C20.9430542,26.9771205 26.9750602,20.9441386 26.9750602,13.5021145 C26.9750602,8.71574096 24.4795663,4.51263253 20.719247,2.12210241 Z" id="Path" fill="#406AEF"></path>
                        <g transform="translate(7.319277, 6.722892)" id="Path">
                            <path d="M3.12484337,13.5553554 L0.753126506,13.5553554 C0.337933735,13.5553554 0.00135542169,13.2187771 0.00135542169,12.8035843 L0.00135542169,5.68263253 C0.00135542169,5.26743976 0.337933735,4.93086145 0.753126506,4.93086145 L3.12484337,4.93086145 C3.54003614,4.93086145 3.87661446,5.26743976 3.87661446,5.68263253 L3.87661446,12.8035843 C3.87661446,13.2187771 3.54003614,13.5553554 3.12484337,13.5553554 Z" fill="#48D8FF"></path>
                            <path d="M3.12489759,12.138994 L0.753072289,12.138994 C0.337933735,12.138994 0.00135542169,11.8023614 0.00135542169,11.3871687 L0.00135542169,12.8035301 C0.00135542169,13.2187771 0.337933735,13.5553554 0.753072289,13.5553554 L3.12489759,13.5553554 C3.54003614,13.5553554 3.87661446,13.2187771 3.87661446,12.8035301 L3.87661446,11.3871687 C3.87661446,11.8023614 3.54009036,12.138994 3.12489759,12.138994 Z" fill="#43C5FF"></path>
                            <path d="M12.3643735,6.31279518 L12.3643735,6.31279518 C12.3643735,5.57913253 11.7696687,4.98442771 11.0360602,4.98442771 L9.15327108,4.98442771 C9.74228313,3.5106506 9.73978916,2.32449398 9.73181928,2.07764458 C9.73827108,2.03307831 9.74174096,1.98759036 9.74174096,1.94123494 L9.74174096,1.87948193 C9.70216265,0.587222892 9.30654217,0.19160241 8.79853012,0.00309036145 L8.79853012,0.00309036145 C8.27761446,0.00309036145 7.85531928,0.425439759 7.85531928,0.946463855 L7.85531928,1.04069277 C7.85011446,1.36371687 7.39637349,2.03009639 7.39637349,2.03009639 L3.93500602,5.53125904 L3.87666867,5.6031506 L3.87666867,6.31279518 L3.87666867,12.7834157 C3.87666867,12.915759 3.98390964,13.023 4.11625301,13.023 L10.6326325,13.023 C11.0759639,13.023 11.4529337,12.6993795 11.5199458,12.2610361 C11.7761747,10.585247 12.3643735,6.69719277 12.3643735,6.31279518 Z" fill="#E3FAFF"></path>
                            <path d="M11.0360602,4.98442771 L10.7924096,4.98442771 C10.7799398,5.10126506 10.7613434,5.25431928 10.7379217,5.4356747 C10.2918253,8.88565663 7.35484337,11.4688735 3.87666867,11.4688193 L3.87666867,11.4688193 L3.87666867,12.7834699 C3.87666867,12.9158133 3.98390964,13.0231084 4.11625301,13.0231084 L10.632741,13.0231084 C11.0760181,13.0231084 11.4528795,12.6998133 11.5198916,12.2615783 C11.7761205,10.5859518 12.3643735,6.6973012 12.3643735,6.31290361 C12.3643735,5.57913253 11.7696687,4.98442771 11.0360602,4.98442771 Z" fill="#CCF4FF"></path>
                        </g>
                    </g>
                    <g id="Group" fill="#000000">
                        <path d="M24.5026745,4.78614425 C22.3025731,2.26663548 19.2772086,0.61785575 15.9838519,0.143438596 C15.7602339,0.111235867 15.5525536,0.266463938 15.5202963,0.490245614 C15.488039,0.71402729 15.6433216,0.92154386 15.8671033,0.95380117 C18.9667524,1.40032749 21.8145653,2.95260819 23.8859649,5.32469396 C25.9771228,7.7194308 27.1288343,10.791462 27.1288343,13.9748928 C27.1288343,17.4890292 25.7606004,20.7928655 23.276078,23.2777154 C20.7916101,25.7625653 17.4883743,27.1310175 13.9748382,27.1310175 C10.5214503,27.1310175 7.25876803,25.8026823 4.78789084,23.3906433 C4.62611306,23.2326316 4.36690838,23.2358519 4.20906043,23.3976296 C4.05110331,23.5594074 4.05426901,23.8185575 4.21604678,23.97646 C6.84073294,26.5386511 10.3065107,27.9496764 13.9748928,27.9496764 C17.7071345,27.9496764 21.2159766,26.4960234 23.8551267,23.8564912 C26.4942222,21.2170136 27.9476023,17.7076257 27.9476023,13.9748382 C27.9476023,10.5933333 26.7241715,7.33005068 24.5026745,4.78614425 Z" id="Path"></path>
                        <path d="M0.820842105,13.9748928 C0.820842105,10.4607563 2.18907602,7.15692008 4.67359844,4.67207018 C7.15806628,2.18716569 10.4613021,0.81871345 13.9748382,0.81871345 C14.2009123,0.81871345 14.3841949,0.635430799 14.3841949,0.409356725 C14.3841949,0.183282651 14.2009123,0 13.9748382,0 C10.2425965,0 6.73375439,1.45365302 4.09460429,4.09318519 C1.45556335,6.73266277 0.00212865497,10.2420507 0.00212865497,13.9748928 C0.00212865497,17.0079532 0.957294347,19.8929357 2.76441326,22.3180195 C2.84475634,22.4258713 2.96805458,22.4827992 3.09299025,22.4827992 C3.17802729,22.4827992 3.26382846,22.4563821 3.33729435,22.401692 C3.5185575,22.2666043 3.556,22.0101287 3.42091228,21.8288109 C1.71995322,19.5461287 0.820842105,16.8302924 0.820842105,13.9748928 Z" id="Path"></path>
                        <path d="M10.8963119,11.7047096 L8.50867057,11.7047096 C7.86565302,11.7047096 7.34249513,12.2278674 7.34249513,12.870885 L7.34249513,20.0396491 C7.34249513,20.6826667 7.86565302,21.2058246 8.50867057,21.2058246 L10.8963119,21.2058246 C11.3074698,21.2058246 11.6688499,20.9913762 11.8765302,20.6690214 C11.8824795,20.6691852 11.8883197,20.6699493 11.8943236,20.6699493 L18.4544561,20.6699493 C19.1077895,20.6699493 19.653653,20.2012086 19.7524444,19.5554074 C19.8275478,19.0640702 19.9310331,18.3839376 20.039922,17.6570292 C20.0734347,17.4334659 19.9193528,17.2250214 19.6957349,17.1915634 C19.4720624,17.1581053 19.2637271,17.3121326 19.230269,17.5357505 C19.1214893,18.261731 19.0181676,18.9409903 18.9431189,19.4316725 C18.9059493,19.6748304 18.7004522,19.8512904 18.4544561,19.8512904 L12.0624873,19.8512904 L12.0624873,12.946152 L15.4875478,9.48168421 C15.5050136,9.464 15.5208421,9.44478752 15.5348148,9.42426511 C15.6581676,9.24311111 16.0610838,8.61985185 16.0677973,8.20443665 C16.0677973,8.20219883 16.0678519,8.20001559 16.0678519,8.19783236 L16.0678519,8.10297076 C16.0678519,7.82739181 16.2752047,7.59929825 16.5420507,7.56660429 C16.7827524,7.66719688 17.112039,7.90244055 17.1482807,9.0485848 L17.1482807,9.10431189 C17.1482807,9.13001949 17.1463158,9.15649123 17.1424951,9.18307212 C17.1390565,9.20681481 17.1377466,9.23083041 17.1385107,9.25473684 C17.1453333,9.4674386 17.150846,10.6003743 16.5850604,12.0159298 C16.5346823,12.1420663 16.5500741,12.2849591 16.6262144,12.3973957 C16.7024094,12.5098324 16.8293645,12.5771852 16.9651618,12.5771852 L18.8605926,12.5771852 C19.3722339,12.5771852 19.7884678,12.9934737 19.7884678,13.5050604 C19.7881949,13.5707212 19.7587212,13.922768 19.4911657,15.7688577 C19.4587446,15.9925848 19.6138635,16.2002651 19.8375906,16.2326862 C20.0615906,16.2649981 20.2690526,16.1099883 20.3014191,15.8862612 C20.6072359,13.7763821 20.6072359,13.5862768 20.6072359,13.505115 C20.6072359,12.5419805 19.8237271,11.7584717 18.8606472,11.7584717 L17.548577,11.7584717 C17.9440156,10.5424639 17.9653021,9.59395712 17.95777,9.26237817 C17.9639376,9.20954386 17.9670487,9.15654581 17.9670487,9.10425731 L17.9670487,9.04208967 C17.9670487,9.03788694 17.9669942,9.03373879 17.966885,9.02959064 C17.9281326,7.76413255 17.5529981,7.06702534 16.7505497,6.76934113 C16.7049747,6.75242105 16.6567797,6.74379727 16.6081481,6.74379727 C15.858807,6.74379727 15.2492476,7.35346589 15.2492476,8.1028616 L15.2492476,8.19128265 C15.2413333,8.30235478 15.0677661,8.64845224 14.8783704,8.93336452 L11.758963,12.0886862 C11.5453333,11.8535517 11.2382612,11.7047096 10.8963119,11.7047096 Z M11.2437739,20.0396491 C11.2437739,20.2312281 11.0879454,20.3871111 10.8963119,20.3871111 L8.50867057,20.3871111 C8.31709162,20.3871111 8.16120858,20.2312281 8.16120858,20.0396491 L8.16120858,12.870885 C8.16120858,12.679306 8.31709162,12.523423 8.50867057,12.523423 L10.8963119,12.523423 C11.0878908,12.523423 11.2437739,12.679306 11.2437739,12.870885 L11.2437739,20.019345 L11.2437739,20.0396491 Z" id="Shape"></path>
                    </g>
                </g>
                <g id="like-8" transform="translate(237.000000, 147.000000)" fill-rule="nonzero">
                    <g id="Group" transform="translate(1.000000, 0.000000)">
                        <ellipse id="Oval" fill="#407FFF" cx="13.5021145" cy="13.5021145" rx="13.4728916" ry="13.475006"></ellipse>
                        <path d="M20.719247,2.12210241 C23.1593855,4.56088554 24.6688373,7.93100602 24.6688373,11.653753 C24.6688373,19.0957771 18.6368313,25.128759 11.1959458,25.128759 C8.54072892,25.128759 6.06518675,24.3600723 3.97886747,23.0337651 C6.41672892,25.4702711 9.78348795,26.9771205 13.5021687,26.9771205 C20.9430542,26.9771205 26.9750602,20.9441386 26.9750602,13.5021145 C26.9750602,8.71574096 24.4795663,4.51263253 20.719247,2.12210241 Z" id="Path" fill="#406AEF"></path>
                        <g transform="translate(7.319277, 6.722892)" id="Path">
                            <path d="M3.12484337,13.5553554 L0.753126506,13.5553554 C0.337933735,13.5553554 0.00135542169,13.2187771 0.00135542169,12.8035843 L0.00135542169,5.68263253 C0.00135542169,5.26743976 0.337933735,4.93086145 0.753126506,4.93086145 L3.12484337,4.93086145 C3.54003614,4.93086145 3.87661446,5.26743976 3.87661446,5.68263253 L3.87661446,12.8035843 C3.87661446,13.2187771 3.54003614,13.5553554 3.12484337,13.5553554 Z" fill="#48D8FF"></path>
                            <path d="M3.12489759,12.138994 L0.753072289,12.138994 C0.337933735,12.138994 0.00135542169,11.8023614 0.00135542169,11.3871687 L0.00135542169,12.8035301 C0.00135542169,13.2187771 0.337933735,13.5553554 0.753072289,13.5553554 L3.12489759,13.5553554 C3.54003614,13.5553554 3.87661446,13.2187771 3.87661446,12.8035301 L3.87661446,11.3871687 C3.87661446,11.8023614 3.54009036,12.138994 3.12489759,12.138994 Z" fill="#43C5FF"></path>
                            <path d="M12.3643735,6.31279518 L12.3643735,6.31279518 C12.3643735,5.57913253 11.7696687,4.98442771 11.0360602,4.98442771 L9.15327108,4.98442771 C9.74228313,3.5106506 9.73978916,2.32449398 9.73181928,2.07764458 C9.73827108,2.03307831 9.74174096,1.98759036 9.74174096,1.94123494 L9.74174096,1.87948193 C9.70216265,0.587222892 9.30654217,0.19160241 8.79853012,0.00309036145 L8.79853012,0.00309036145 C8.27761446,0.00309036145 7.85531928,0.425439759 7.85531928,0.946463855 L7.85531928,1.04069277 C7.85011446,1.36371687 7.39637349,2.03009639 7.39637349,2.03009639 L3.93500602,5.53125904 L3.87666867,5.6031506 L3.87666867,6.31279518 L3.87666867,12.7834157 C3.87666867,12.915759 3.98390964,13.023 4.11625301,13.023 L10.6326325,13.023 C11.0759639,13.023 11.4529337,12.6993795 11.5199458,12.2610361 C11.7761747,10.585247 12.3643735,6.69719277 12.3643735,6.31279518 Z" fill="#E3FAFF"></path>
                            <path d="M11.0360602,4.98442771 L10.7924096,4.98442771 C10.7799398,5.10126506 10.7613434,5.25431928 10.7379217,5.4356747 C10.2918253,8.88565663 7.35484337,11.4688735 3.87666867,11.4688193 L3.87666867,11.4688193 L3.87666867,12.7834699 C3.87666867,12.9158133 3.98390964,13.0231084 4.11625301,13.0231084 L10.632741,13.0231084 C11.0760181,13.0231084 11.4528795,12.6998133 11.5198916,12.2615783 C11.7761205,10.5859518 12.3643735,6.6973012 12.3643735,6.31290361 C12.3643735,5.57913253 11.7696687,4.98442771 11.0360602,4.98442771 Z" fill="#CCF4FF"></path>
                        </g>
                    </g>
                    <g id="Group" fill="#000000">
                        <path d="M24.5026745,4.78614425 C22.3025731,2.26663548 19.2772086,0.61785575 15.9838519,0.143438596 C15.7602339,0.111235867 15.5525536,0.266463938 15.5202963,0.490245614 C15.488039,0.71402729 15.6433216,0.92154386 15.8671033,0.95380117 C18.9667524,1.40032749 21.8145653,2.95260819 23.8859649,5.32469396 C25.9771228,7.7194308 27.1288343,10.791462 27.1288343,13.9748928 C27.1288343,17.4890292 25.7606004,20.7928655 23.276078,23.2777154 C20.7916101,25.7625653 17.4883743,27.1310175 13.9748382,27.1310175 C10.5214503,27.1310175 7.25876803,25.8026823 4.78789084,23.3906433 C4.62611306,23.2326316 4.36690838,23.2358519 4.20906043,23.3976296 C4.05110331,23.5594074 4.05426901,23.8185575 4.21604678,23.97646 C6.84073294,26.5386511 10.3065107,27.9496764 13.9748928,27.9496764 C17.7071345,27.9496764 21.2159766,26.4960234 23.8551267,23.8564912 C26.4942222,21.2170136 27.9476023,17.7076257 27.9476023,13.9748382 C27.9476023,10.5933333 26.7241715,7.33005068 24.5026745,4.78614425 Z" id="Path"></path>
                        <path d="M0.820842105,13.9748928 C0.820842105,10.4607563 2.18907602,7.15692008 4.67359844,4.67207018 C7.15806628,2.18716569 10.4613021,0.81871345 13.9748382,0.81871345 C14.2009123,0.81871345 14.3841949,0.635430799 14.3841949,0.409356725 C14.3841949,0.183282651 14.2009123,0 13.9748382,0 C10.2425965,0 6.73375439,1.45365302 4.09460429,4.09318519 C1.45556335,6.73266277 0.00212865497,10.2420507 0.00212865497,13.9748928 C0.00212865497,17.0079532 0.957294347,19.8929357 2.76441326,22.3180195 C2.84475634,22.4258713 2.96805458,22.4827992 3.09299025,22.4827992 C3.17802729,22.4827992 3.26382846,22.4563821 3.33729435,22.401692 C3.5185575,22.2666043 3.556,22.0101287 3.42091228,21.8288109 C1.71995322,19.5461287 0.820842105,16.8302924 0.820842105,13.9748928 Z" id="Path"></path>
                        <path d="M10.8963119,11.7047096 L8.50867057,11.7047096 C7.86565302,11.7047096 7.34249513,12.2278674 7.34249513,12.870885 L7.34249513,20.0396491 C7.34249513,20.6826667 7.86565302,21.2058246 8.50867057,21.2058246 L10.8963119,21.2058246 C11.3074698,21.2058246 11.6688499,20.9913762 11.8765302,20.6690214 C11.8824795,20.6691852 11.8883197,20.6699493 11.8943236,20.6699493 L18.4544561,20.6699493 C19.1077895,20.6699493 19.653653,20.2012086 19.7524444,19.5554074 C19.8275478,19.0640702 19.9310331,18.3839376 20.039922,17.6570292 C20.0734347,17.4334659 19.9193528,17.2250214 19.6957349,17.1915634 C19.4720624,17.1581053 19.2637271,17.3121326 19.230269,17.5357505 C19.1214893,18.261731 19.0181676,18.9409903 18.9431189,19.4316725 C18.9059493,19.6748304 18.7004522,19.8512904 18.4544561,19.8512904 L12.0624873,19.8512904 L12.0624873,12.946152 L15.4875478,9.48168421 C15.5050136,9.464 15.5208421,9.44478752 15.5348148,9.42426511 C15.6581676,9.24311111 16.0610838,8.61985185 16.0677973,8.20443665 C16.0677973,8.20219883 16.0678519,8.20001559 16.0678519,8.19783236 L16.0678519,8.10297076 C16.0678519,7.82739181 16.2752047,7.59929825 16.5420507,7.56660429 C16.7827524,7.66719688 17.112039,7.90244055 17.1482807,9.0485848 L17.1482807,9.10431189 C17.1482807,9.13001949 17.1463158,9.15649123 17.1424951,9.18307212 C17.1390565,9.20681481 17.1377466,9.23083041 17.1385107,9.25473684 C17.1453333,9.4674386 17.150846,10.6003743 16.5850604,12.0159298 C16.5346823,12.1420663 16.5500741,12.2849591 16.6262144,12.3973957 C16.7024094,12.5098324 16.8293645,12.5771852 16.9651618,12.5771852 L18.8605926,12.5771852 C19.3722339,12.5771852 19.7884678,12.9934737 19.7884678,13.5050604 C19.7881949,13.5707212 19.7587212,13.922768 19.4911657,15.7688577 C19.4587446,15.9925848 19.6138635,16.2002651 19.8375906,16.2326862 C20.0615906,16.2649981 20.2690526,16.1099883 20.3014191,15.8862612 C20.6072359,13.7763821 20.6072359,13.5862768 20.6072359,13.505115 C20.6072359,12.5419805 19.8237271,11.7584717 18.8606472,11.7584717 L17.548577,11.7584717 C17.9440156,10.5424639 17.9653021,9.59395712 17.95777,9.26237817 C17.9639376,9.20954386 17.9670487,9.15654581 17.9670487,9.10425731 L17.9670487,9.04208967 C17.9670487,9.03788694 17.9669942,9.03373879 17.966885,9.02959064 C17.9281326,7.76413255 17.5529981,7.06702534 16.7505497,6.76934113 C16.7049747,6.75242105 16.6567797,6.74379727 16.6081481,6.74379727 C15.858807,6.74379727 15.2492476,7.35346589 15.2492476,8.1028616 L15.2492476,8.19128265 C15.2413333,8.30235478 15.0677661,8.64845224 14.8783704,8.93336452 L11.758963,12.0886862 C11.5453333,11.8535517 11.2382612,11.7047096 10.8963119,11.7047096 Z M11.2437739,20.0396491 C11.2437739,20.2312281 11.0879454,20.3871111 10.8963119,20.3871111 L8.50867057,20.3871111 C8.31709162,20.3871111 8.16120858,20.2312281 8.16120858,20.0396491 L8.16120858,12.870885 C8.16120858,12.679306 8.31709162,12.523423 8.50867057,12.523423 L10.8963119,12.523423 C11.0878908,12.523423 11.2437739,12.679306 11.2437739,12.870885 L11.2437739,20.019345 L11.2437739,20.0396491 Z" id="Shape"></path>
                    </g>
                </g>
                <g id="like-9" transform="translate(32.000000, 31.000000)" fill-rule="nonzero">
                    <g id="Group" transform="translate(1.000000, 0.000000)">
                        <ellipse id="Oval" fill="#407FFF" cx="13.5021145" cy="13.5021145" rx="13.4728916" ry="13.475006"></ellipse>
                        <path d="M20.719247,2.12210241 C23.1593855,4.56088554 24.6688373,7.93100602 24.6688373,11.653753 C24.6688373,19.0957771 18.6368313,25.128759 11.1959458,25.128759 C8.54072892,25.128759 6.06518675,24.3600723 3.97886747,23.0337651 C6.41672892,25.4702711 9.78348795,26.9771205 13.5021687,26.9771205 C20.9430542,26.9771205 26.9750602,20.9441386 26.9750602,13.5021145 C26.9750602,8.71574096 24.4795663,4.51263253 20.719247,2.12210241 Z" id="Path" fill="#406AEF"></path>
                        <g transform="translate(7.319277, 6.722892)" id="Path">
                            <path d="M3.12484337,13.5553554 L0.753126506,13.5553554 C0.337933735,13.5553554 0.00135542169,13.2187771 0.00135542169,12.8035843 L0.00135542169,5.68263253 C0.00135542169,5.26743976 0.337933735,4.93086145 0.753126506,4.93086145 L3.12484337,4.93086145 C3.54003614,4.93086145 3.87661446,5.26743976 3.87661446,5.68263253 L3.87661446,12.8035843 C3.87661446,13.2187771 3.54003614,13.5553554 3.12484337,13.5553554 Z" fill="#48D8FF"></path>
                            <path d="M3.12489759,12.138994 L0.753072289,12.138994 C0.337933735,12.138994 0.00135542169,11.8023614 0.00135542169,11.3871687 L0.00135542169,12.8035301 C0.00135542169,13.2187771 0.337933735,13.5553554 0.753072289,13.5553554 L3.12489759,13.5553554 C3.54003614,13.5553554 3.87661446,13.2187771 3.87661446,12.8035301 L3.87661446,11.3871687 C3.87661446,11.8023614 3.54009036,12.138994 3.12489759,12.138994 Z" fill="#43C5FF"></path>
                            <path d="M12.3643735,6.31279518 L12.3643735,6.31279518 C12.3643735,5.57913253 11.7696687,4.98442771 11.0360602,4.98442771 L9.15327108,4.98442771 C9.74228313,3.5106506 9.73978916,2.32449398 9.73181928,2.07764458 C9.73827108,2.03307831 9.74174096,1.98759036 9.74174096,1.94123494 L9.74174096,1.87948193 C9.70216265,0.587222892 9.30654217,0.19160241 8.79853012,0.00309036145 L8.79853012,0.00309036145 C8.27761446,0.00309036145 7.85531928,0.425439759 7.85531928,0.946463855 L7.85531928,1.04069277 C7.85011446,1.36371687 7.39637349,2.03009639 7.39637349,2.03009639 L3.93500602,5.53125904 L3.87666867,5.6031506 L3.87666867,6.31279518 L3.87666867,12.7834157 C3.87666867,12.915759 3.98390964,13.023 4.11625301,13.023 L10.6326325,13.023 C11.0759639,13.023 11.4529337,12.6993795 11.5199458,12.2610361 C11.7761747,10.585247 12.3643735,6.69719277 12.3643735,6.31279518 Z" fill="#E3FAFF"></path>
                            <path d="M11.0360602,4.98442771 L10.7924096,4.98442771 C10.7799398,5.10126506 10.7613434,5.25431928 10.7379217,5.4356747 C10.2918253,8.88565663 7.35484337,11.4688735 3.87666867,11.4688193 L3.87666867,11.4688193 L3.87666867,12.7834699 C3.87666867,12.9158133 3.98390964,13.0231084 4.11625301,13.0231084 L10.632741,13.0231084 C11.0760181,13.0231084 11.4528795,12.6998133 11.5198916,12.2615783 C11.7761205,10.5859518 12.3643735,6.6973012 12.3643735,6.31290361 C12.3643735,5.57913253 11.7696687,4.98442771 11.0360602,4.98442771 Z" fill="#CCF4FF"></path>
                        </g>
                    </g>
                    <g id="Group" fill="#000000">
                        <path d="M24.5026745,4.78614425 C22.3025731,2.26663548 19.2772086,0.61785575 15.9838519,0.143438596 C15.7602339,0.111235867 15.5525536,0.266463938 15.5202963,0.490245614 C15.488039,0.71402729 15.6433216,0.92154386 15.8671033,0.95380117 C18.9667524,1.40032749 21.8145653,2.95260819 23.8859649,5.32469396 C25.9771228,7.7194308 27.1288343,10.791462 27.1288343,13.9748928 C27.1288343,17.4890292 25.7606004,20.7928655 23.276078,23.2777154 C20.7916101,25.7625653 17.4883743,27.1310175 13.9748382,27.1310175 C10.5214503,27.1310175 7.25876803,25.8026823 4.78789084,23.3906433 C4.62611306,23.2326316 4.36690838,23.2358519 4.20906043,23.3976296 C4.05110331,23.5594074 4.05426901,23.8185575 4.21604678,23.97646 C6.84073294,26.5386511 10.3065107,27.9496764 13.9748928,27.9496764 C17.7071345,27.9496764 21.2159766,26.4960234 23.8551267,23.8564912 C26.4942222,21.2170136 27.9476023,17.7076257 27.9476023,13.9748382 C27.9476023,10.5933333 26.7241715,7.33005068 24.5026745,4.78614425 Z" id="Path"></path>
                        <path d="M0.820842105,13.9748928 C0.820842105,10.4607563 2.18907602,7.15692008 4.67359844,4.67207018 C7.15806628,2.18716569 10.4613021,0.81871345 13.9748382,0.81871345 C14.2009123,0.81871345 14.3841949,0.635430799 14.3841949,0.409356725 C14.3841949,0.183282651 14.2009123,0 13.9748382,0 C10.2425965,0 6.73375439,1.45365302 4.09460429,4.09318519 C1.45556335,6.73266277 0.00212865497,10.2420507 0.00212865497,13.9748928 C0.00212865497,17.0079532 0.957294347,19.8929357 2.76441326,22.3180195 C2.84475634,22.4258713 2.96805458,22.4827992 3.09299025,22.4827992 C3.17802729,22.4827992 3.26382846,22.4563821 3.33729435,22.401692 C3.5185575,22.2666043 3.556,22.0101287 3.42091228,21.8288109 C1.71995322,19.5461287 0.820842105,16.8302924 0.820842105,13.9748928 Z" id="Path"></path>
                        <path d="M10.8963119,11.7047096 L8.50867057,11.7047096 C7.86565302,11.7047096 7.34249513,12.2278674 7.34249513,12.870885 L7.34249513,20.0396491 C7.34249513,20.6826667 7.86565302,21.2058246 8.50867057,21.2058246 L10.8963119,21.2058246 C11.3074698,21.2058246 11.6688499,20.9913762 11.8765302,20.6690214 C11.8824795,20.6691852 11.8883197,20.6699493 11.8943236,20.6699493 L18.4544561,20.6699493 C19.1077895,20.6699493 19.653653,20.2012086 19.7524444,19.5554074 C19.8275478,19.0640702 19.9310331,18.3839376 20.039922,17.6570292 C20.0734347,17.4334659 19.9193528,17.2250214 19.6957349,17.1915634 C19.4720624,17.1581053 19.2637271,17.3121326 19.230269,17.5357505 C19.1214893,18.261731 19.0181676,18.9409903 18.9431189,19.4316725 C18.9059493,19.6748304 18.7004522,19.8512904 18.4544561,19.8512904 L12.0624873,19.8512904 L12.0624873,12.946152 L15.4875478,9.48168421 C15.5050136,9.464 15.5208421,9.44478752 15.5348148,9.42426511 C15.6581676,9.24311111 16.0610838,8.61985185 16.0677973,8.20443665 C16.0677973,8.20219883 16.0678519,8.20001559 16.0678519,8.19783236 L16.0678519,8.10297076 C16.0678519,7.82739181 16.2752047,7.59929825 16.5420507,7.56660429 C16.7827524,7.66719688 17.112039,7.90244055 17.1482807,9.0485848 L17.1482807,9.10431189 C17.1482807,9.13001949 17.1463158,9.15649123 17.1424951,9.18307212 C17.1390565,9.20681481 17.1377466,9.23083041 17.1385107,9.25473684 C17.1453333,9.4674386 17.150846,10.6003743 16.5850604,12.0159298 C16.5346823,12.1420663 16.5500741,12.2849591 16.6262144,12.3973957 C16.7024094,12.5098324 16.8293645,12.5771852 16.9651618,12.5771852 L18.8605926,12.5771852 C19.3722339,12.5771852 19.7884678,12.9934737 19.7884678,13.5050604 C19.7881949,13.5707212 19.7587212,13.922768 19.4911657,15.7688577 C19.4587446,15.9925848 19.6138635,16.2002651 19.8375906,16.2326862 C20.0615906,16.2649981 20.2690526,16.1099883 20.3014191,15.8862612 C20.6072359,13.7763821 20.6072359,13.5862768 20.6072359,13.505115 C20.6072359,12.5419805 19.8237271,11.7584717 18.8606472,11.7584717 L17.548577,11.7584717 C17.9440156,10.5424639 17.9653021,9.59395712 17.95777,9.26237817 C17.9639376,9.20954386 17.9670487,9.15654581 17.9670487,9.10425731 L17.9670487,9.04208967 C17.9670487,9.03788694 17.9669942,9.03373879 17.966885,9.02959064 C17.9281326,7.76413255 17.5529981,7.06702534 16.7505497,6.76934113 C16.7049747,6.75242105 16.6567797,6.74379727 16.6081481,6.74379727 C15.858807,6.74379727 15.2492476,7.35346589 15.2492476,8.1028616 L15.2492476,8.19128265 C15.2413333,8.30235478 15.0677661,8.64845224 14.8783704,8.93336452 L11.758963,12.0886862 C11.5453333,11.8535517 11.2382612,11.7047096 10.8963119,11.7047096 Z M11.2437739,20.0396491 C11.2437739,20.2312281 11.0879454,20.3871111 10.8963119,20.3871111 L8.50867057,20.3871111 C8.31709162,20.3871111 8.16120858,20.2312281 8.16120858,20.0396491 L8.16120858,12.870885 C8.16120858,12.679306 8.31709162,12.523423 8.50867057,12.523423 L10.8963119,12.523423 C11.0878908,12.523423 11.2437739,12.679306 11.2437739,12.870885 L11.2437739,20.019345 L11.2437739,20.0396491 Z" id="Shape"></path>
                    </g>
                </g>
            </g>
        </g>
    </g>
</svg>