<svg xmlns="http://www.w3.org/2000/svg" viewBox="0 0 124.21 124.18"><defs><style>.cls-1{fill:#4d77fa;}.cls-2{fill:#151619;}</style></defs><title>qrcodechimp-icon</title><g id="Layer_2" data-name="Layer 2"><g id="Layer_3" data-name="Layer 3"><path class="cls-1" d="M2.21,71.72a3.27,3.27,0,0,1,.45-6.3A18.49,18.49,0,0,0,2.21,71.72Z"/><path class="cls-1" d="M38.05,114.06l0,0v0l-5.32-4v7.6H6.54V91.51l15.82,0c-.05-.78-.06-1.58-.05-2.37a24.1,24.1,0,0,1-3.44-.36A22.39,22.39,0,0,1,9.94,85L3.27,85A3.26,3.26,0,0,0,0,88.24v32.68a3.26,3.26,0,0,0,3.27,3.26H36a3.27,3.27,0,0,0,3.27-3.26v-6Z"/><path class="cls-1" d="M36,0H3.27A3.26,3.26,0,0,0,0,3.27V36a3.27,3.27,0,0,0,3.27,3.27H6.12c.24-.62.51-1.23.81-1.86a21.31,21.31,0,0,1,3.12-4.68H6.54V6.54H32.68V14A38.64,38.64,0,0,1,39.22,3.42V3.27A3.27,3.27,0,0,0,36,0Z"/><path class="cls-1" d="M120.92,0H88.24a3.25,3.25,0,0,0-3,2,14.81,14.81,0,0,1,3.14,4.23,73.9,73.9,0,0,1,3.15,7.33v-7h26.14V32.68h-7.16a18.5,18.5,0,0,1,3.15,6.54h7.28A3.27,3.27,0,0,0,124.18,36V3.27A3.26,3.26,0,0,0,120.92,0Z"/><path class="cls-1" d="M26.14,104.33v3.51a3.26,3.26,0,0,1-3.26,3.27H16.34a3.26,3.26,0,0,1-3.27-3.27v-6.53A3.26,3.26,0,0,1,16.34,98h6.54a2.92,2.92,0,0,1,.51,0Z"/><path class="cls-1" d="M26.14,16.34v6.54a3.25,3.25,0,0,1-1.29,2.6c-1.1.18-2.2.39-3.28.66H16.34a3.26,3.26,0,0,1-3.27-3.26V16.34a3.26,3.26,0,0,1,3.27-3.27h6.54A3.26,3.26,0,0,1,26.14,16.34Z"/><path class="cls-1" d="M101.31,26.14h6.54a3.26,3.26,0,0,0,3.26-3.26V16.34a3.26,3.26,0,0,0-3.26-3.27h-6.54A3.26,3.26,0,0,0,98,16.34v6.54A3.26,3.26,0,0,0,101.31,26.14Z"/><path class="cls-1" d="M118.88,102.57H108.24a5.32,5.32,0,0,0-5.32,5.33v10.64a5.32,5.32,0,0,0,5.32,5.32h10.64a5.32,5.32,0,0,0,5.32-5.32V107.9A5.33,5.33,0,0,0,118.88,102.57Zm-.83,12.89a2.24,2.24,0,0,1-2.25,2.24h-4.48a2.24,2.24,0,0,1-2.25-2.24V111a2.24,2.24,0,0,1,1-1.88,2.19,2.19,0,0,1,1.22-.36h4.48a2.24,2.24,0,0,1,2.25,2.24Z"/><path class="cls-1" d="M5.93,53.05a14.54,14.54,0,0,0,2.21,3.26,23.74,23.74,0,0,0-2.22,2.51H3.27a3.27,3.27,0,1,1,0-6.53h2.3C5.68,52.54,5.8,52.79,5.93,53.05Z"/><path class="cls-1" d="M124.18,55.55a3.26,3.26,0,0,1-3.26,3.27h-4a21.6,21.6,0,0,0-5.2-4.92,13.08,13.08,0,0,0,1.06-1.61h8.09A3.26,3.26,0,0,1,124.18,55.55Z"/><path class="cls-1" d="M124.18,68.63a3.26,3.26,0,0,1-3.26,3.26h-.29a19.33,19.33,0,0,0-.41-6.51v0h.71A3.26,3.26,0,0,1,124.18,68.63Z"/><path class="cls-1" d="M45.75,118.65a38.41,38.41,0,0,0,6.54,2.21v.06a3.27,3.27,0,0,1-6.54,0Z"/><path class="cls-1" d="M70.94,120.83a40.18,40.18,0,0,0,7.49-2.72v2.81a3.26,3.26,0,0,1-3.26,3.26H62.09a3.27,3.27,0,0,1-3.12-2.3c.85.06,1.72.09,2.58.09A39,39,0,0,0,70.94,120.83Z"/><path class="cls-1" d="M39.22,114.93q-.6-.42-1.17-.87Z"/><path class="cls-1" d="M62.16,26.14h-.07a2.73,2.73,0,0,1-.41,0Z"/><path class="cls-2" d="M68.79,89.84a13.9,13.9,0,0,1-3.07,2.67,11.77,11.77,0,0,1-7.81,1.67,10.15,10.15,0,0,1-3.54-1.64l-.31-.35h1.7a33.31,33.31,0,0,0,6.36-.68h0l1.31-.29h0c1.11-.26,2.24-.57,3.36-.93C68.79,89.64,68.79,89.64,68.79,89.84Z"/><path class="cls-1" d="M87.3,65.49a2,2,0,0,1-.54.62,4.1,4.1,0,0,1-1.08.48A3.39,3.39,0,0,1,87.3,65.49Z"/><path class="cls-1" d="M13.47,67.07c-.08.16-.16.34-.23.51A2.94,2.94,0,0,1,13.47,67.07Z"/><path class="cls-2" d="M115.62,67a11.78,11.78,0,0,0-.57-1.64,15.59,15.59,0,0,0-5.36-6.54,17.2,17.2,0,0,0-2.35-1.41,28.6,28.6,0,0,0-4.84-1.71l-.55-.13,1.47-1a20.37,20.37,0,0,0,2.79-2.3,12.94,12.94,0,0,0,2.52-3.15,8.85,8.85,0,0,0,.78-5.4,19.19,19.19,0,0,0-1-4.52,11.92,11.92,0,0,0-5.35-6.54,20.77,20.77,0,0,0-6.64-2.37c-1-.2-2.58-.45-3.49-.57l-1.57-.19h-.07l-1-3.17A160.28,160.28,0,0,0,85,10.82c-.45-1-.9-2-1.35-2.9a8.92,8.92,0,0,0-5.19-4.56,10.78,10.78,0,0,0-4.72-.43c-.43.06-1.13.2-1.81.35l-1,.24C65,5.12,64.83,5.15,62.78,5.05a22.72,22.72,0,0,1-5.59-1,19.07,19.07,0,0,0-4.91-1H51c-2.29,0-2.6,0-3.59.42a10.12,10.12,0,0,0-1.68.84,14.32,14.32,0,0,0-2.42,1.88c-2.27,2.28-4.76,6.52-6.74,11.55-.62,1.55-2.67,7.72-2.67,8s-.22.32,3.5-.47c2.81-.58,5.6-1.07,8.33-1.47,2.22-.32,4.4-.59,6.54-.79s4.42-.36,6.55-.43a83,83,0,0,1,14,.56c1.74.23,3.64.55,5.37.88,3,.58,5.4,1.21,5.74,1.54s.35.3-2.72-.19c-1.19-.18-2.35-.33-3.54-.44-4.88-.47-10-.33-17.75.42l-1.18.12c-2.17.22-2.94.47-1.49.49,1.2,0,2.72.06,4.39.15l.48,0c4.26.27,9.28.76,12.08,1.23,3,.5,7.84,1.71,7.66,1.87s-9.56.5-17.87.72c-4.18.12-7.38.15-11.74.09L47.18,30l-1.43,0a162.19,162.19,0,0,0-16.59.21c-10,.87-15,3.51-17.93,9.38a16.37,16.37,0,0,0-1.67,6.09c-.25,2.29-.12,3.27.62,4.72a9,9,0,0,0,1.32,2,18.48,18.48,0,0,0,4.25,3.4l1.45.91-1.05.45a15.7,15.7,0,0,0-3,1.77,16.59,16.59,0,0,0-5.3,6.44A13.18,13.18,0,0,0,8,75.42c1.79,4,6.13,7.21,11.2,8.18a24,24,0,0,0,7.42,0c.74-.15,1.39-.26,1.44-.26A3.4,3.4,0,0,1,28,84.47c-1.14,6.12-.44,12.34,1.85,16.51.9,1.64,3.25,4.46,3.5,4.19a3.72,3.72,0,0,0-.35-1.24c-1.33-3.53-1.9-5.83-1.9-7.54l0-1L31.65,97a30.35,30.35,0,0,0,5.44,9.42,29.25,29.25,0,0,0,8.66,6.9,33.15,33.15,0,0,0,6.54,2.6,34.46,34.46,0,0,0,17.42.28c.71-.18,1.44-.39,2.19-.64a35.49,35.49,0,0,0,6.53-2.89c.44-.25.85-.5,1.25-.76A27.52,27.52,0,0,0,85,107.46a32.08,32.08,0,0,0,6.51-10.53l0-.08V99.3a31.84,31.84,0,0,1-1.28,4.07,13.33,13.33,0,0,0-.59,1.7c0,.12.42-.2.94-.7.32-.32.63-.66.93-1a19.06,19.06,0,0,0,4-11.85A32.49,32.49,0,0,0,95.08,85l0-.19a10.58,10.58,0,0,1-.19-1.37s.6.09,1.29.22a26,26,0,0,0,7.57,0c6-1.3,10.35-5.08,11.81-10.2a8.78,8.78,0,0,0,.28-1.52A14.4,14.4,0,0,0,115.62,67ZM29.08,76.76c-5.52,2.78-11.73,1.73-15-2.54a6.62,6.62,0,0,1-.89-6.57s0,0,0,0h0v0h0a2.94,2.94,0,0,1,.23-.51v0h0v0a10.94,10.94,0,0,1,6.4-5.28c1.43-.5,1.45-.5,1.58.1.27,1.39.2,1.52-1.28,2.24a9.43,9.43,0,0,0-2,1.28,11.38,11.38,0,0,0-3.48,5.09c-.13.37-.22.65-.27.86h0c-.14.53-.05.55.3.29l.09,0A12.08,12.08,0,0,1,22,69.17h1.36l.78,1.1a17.4,17.4,0,0,0,1.3,1.62,25.18,25.18,0,0,0,3.15,3l1.64,1.31ZM92.23,56.57a34.16,34.16,0,0,1-1.89,8.79c-.13.34-.26.65-.4.94-.76,1.61-2.3,2.66-4.85,3.21a19.4,19.4,0,0,1-3,.41c-2,.15-1.95.11-1.4,1a29.7,29.7,0,0,1,3.61,10.79,49.27,49.27,0,0,1,0,8.84,27.72,27.72,0,0,1-3.25,9.88c-.82,1.35-2.42,3.39-2.21,2.81.92-2.44,1.49-5.59,1.2-6.68-.14-.56,0-.7-1.3,1.5a6.32,6.32,0,0,1-.33.56A25.58,25.58,0,0,1,71.9,106a21.07,21.07,0,0,1-2.28,1.48,17.06,17.06,0,0,1-13,1.35,19.06,19.06,0,0,1-4.32-2,23.13,23.13,0,0,1-6.47-6.19,26.73,26.73,0,0,1-2-3.23,4.72,4.72,0,0,0-.79-1.21,3.8,3.8,0,0,0-.13,1.37,17.94,17.94,0,0,0,1,5.21c.45,1.26.17,1-1.1-.87a28.23,28.23,0,0,1-3.92-9.76,24,24,0,0,1-.38-5.7,27.87,27.87,0,0,1,.38-6,27.3,27.3,0,0,1,2.86-8.59l.26-.45c.45-.82.65-1.31.53-1.36s-.8-.1-1.53-.16c-4.24-.34-6.59-1.3-7.68-3.14a12.07,12.07,0,0,1-.66-1.42,32,32,0,0,1-1.59-6.54c-.11-.78-.19-1.56-.25-2.33a23.75,23.75,0,0,1,.19-4.2A7.93,7.93,0,0,1,31.28,51c.42-1.39,2.17-2.79,4.14-3.31a8.36,8.36,0,0,0,2-1,23.57,23.57,0,0,1,7.93-3.2,18.49,18.49,0,0,1,4.83-.35,18.54,18.54,0,0,1,5.13.43,27.22,27.22,0,0,1,4,1.2c.61.26.23-.21-.75-.95a20.43,20.43,0,0,0-10-3.7l-1.68-.2.92-.2a20.75,20.75,0,0,1,6.92.37,29.87,29.87,0,0,1,5.87,2.25l.92.5,1.87-.9a21.71,21.71,0,0,1,8.55-2.38c.52,0,1,0,1.54,0a19.05,19.05,0,0,1,2.27.25c.43.12.3.17-.82.27a28.59,28.59,0,0,0-3,.46,19.52,19.52,0,0,0-2.19.56,25.32,25.32,0,0,0-5.48,2.85,4.93,4.93,0,0,0-.92.81,6.33,6.33,0,0,0,1.47-.41,20.37,20.37,0,0,1,7.12-1.23h1a18,18,0,0,1,5.17.47l.38.1a21.36,21.36,0,0,1,7.09,3,9.21,9.21,0,0,0,2.09,1c2.18.67,3.75,1.92,4.17,3.3A23.58,23.58,0,0,1,92.23,56.57ZM109.9,71.89a7.9,7.9,0,0,1-2.24,3.52,11.6,11.6,0,0,1-11.43,2.33,14.14,14.14,0,0,1-3.38-1.57A14.44,14.44,0,0,1,94.23,75a26.48,26.48,0,0,0,3.27-3.1,14.59,14.59,0,0,0,1.35-1.71l.7-1.06,1.85.1a9.73,9.73,0,0,1,3,.5,15.45,15.45,0,0,1,3.45,1.66,1.08,1.08,0,0,0,.53.27,11.9,11.9,0,0,0-1.31-3.49,12.57,12.57,0,0,0-2.44-2.8,10.25,10.25,0,0,0-2.27-1.48l-.88-.4V62.39a5,5,0,0,1,.06-1.06s.5.15,1,.31a11.63,11.63,0,0,1,5.76,3.72q.27.35.51.72A6.93,6.93,0,0,1,109.9,71.89Z"/><path class="cls-2" d="M59.25,58.82c0,.06,0,.12-.07.17a20.56,20.56,0,0,1-3.93,6.37A7.4,7.4,0,0,1,53.14,67c-2.32,1.07-12.21.83-15.92-.39a2.48,2.48,0,0,1-1.52-1.2,9.72,9.72,0,0,1-.83-2c-.33-1.05-.72-2.53-.87-3.32-.06-.34-.12-.73-.16-1.17a30.18,30.18,0,0,1-.12-6c0-.21.06-.38.09-.53A1.81,1.81,0,0,1,34.47,51c.67-.6,2.1-1,4.55-1.22a87.19,87.19,0,0,1,12.08.26c3.72.58,6.24,1.31,7.64,2.22a3,3,0,0,1,1.12,1.14C60.33,54.41,60.08,56.73,59.25,58.82Z"/><path class="cls-2" d="M89.47,56.35c-.08.81-.17,1.59-.27,2.33h0a19.67,19.67,0,0,1-1.89,6.81,3.39,3.39,0,0,0-1.62,1.1,32.23,32.23,0,0,1-7.41,1,38.92,38.92,0,0,1-6.15-.16A9.62,9.62,0,0,1,70,67c-2.21-.81-5-4.74-6.39-8.57a15,15,0,0,1-.7-2.66c-.23-1.48-.06-2.33.77-3.05a5.4,5.4,0,0,1,1-.64,23.15,23.15,0,0,1,7.23-2c.64-.09,1.31-.17,2-.23s2.59-.11,4.55-.11H80c6.16.08,8.26.5,9.05,1.84a3.4,3.4,0,0,1,.34.91A12.23,12.23,0,0,1,89.47,56.35Z"/><path class="cls-2" d="M60.58,74.27a7.11,7.11,0,0,1-1.75-.45,13.38,13.38,0,0,1-1.72-.65,3.37,3.37,0,0,1-1.36-1.28c-.79-1.33-.63-3.1.69-3.76a2.76,2.76,0,0,1,3.27.77,2.66,2.66,0,0,1,.9,1.68A11,11,0,0,1,60.58,74.27Z"/><path class="cls-2" d="M67.47,71.52a4,4,0,0,1-1.8,1.73l-.31.14a16.88,16.88,0,0,1-3,.88s0-.88-.06-1.88a5.39,5.39,0,0,1,.32-2.57,3.46,3.46,0,0,1,2-1.79,2.11,2.11,0,0,1,.74-.14,2.27,2.27,0,0,1,2.15,1.18A3.93,3.93,0,0,1,67.47,71.52Z"/><path class="cls-2" d="M80,87.05c0,.29-.08.32-.53.25-.17,0-.54-.08-1-.12l-1.13-.1a22.71,22.71,0,0,0-5.4.36c-1.67.27-3.76.69-6.58,1.31l-.37.09a54.61,54.61,0,0,1-5.69,1l-1.5.14a22.59,22.59,0,0,1-7.07-.48,23.89,23.89,0,0,1-4.63-2.2,22.62,22.62,0,0,1-3.15-2.82,1.56,1.56,0,0,1-.27-.49s.75.3,1.57.69a21.8,21.8,0,0,0,10.9,2.37,33.59,33.59,0,0,0,3.72-.19c.92-.1,2-.23,3.45-.43L65.36,86a37.76,37.76,0,0,1,6.54-.5h.22a21.25,21.25,0,0,1,6.31.78l.17,0C79.73,86.65,80,86.78,80,87.05Z"/><path class="cls-2" d="M68.79,89.84a13.9,13.9,0,0,1-3.07,2.67,11.77,11.77,0,0,1-7.81,1.67,10.15,10.15,0,0,1-3.54-1.64l-.31-.35h1.7a33.31,33.31,0,0,0,6.36-.68h0l1.31-.29h0c1.11-.26,2.24-.57,3.36-.93C68.79,89.64,68.79,89.64,68.79,89.84Z"/><circle class="cls-1" cx="91.24" cy="117.92" r="5.91"/><circle class="cls-1" cx="97.23" cy="107.39" r="2.32"/><path class="cls-1" d="M99.66,94.46h21.21a3.34,3.34,0,0,0,3.34-3.33h0a3.34,3.34,0,0,0-3.34-3.33H99.81s.16,1.81.16,3.12S99.66,94.46,99.66,94.46Z"/></g></g></svg>