<svg xmlns="http://www.w3.org/2000/svg" viewBox="0 0 443.03 123.78"><defs><style>.cls-1{fill:#fff;}</style></defs><title>qr-code-chimp-white_1</title><g id="Layer_2" data-name="Layer 2"><g id="Layer_1-2" data-name="Layer 1"><g id="Layer_3" data-name="Layer 3"><g id="qrcode_chimp" data-name="qrcode chimp"><path class="cls-1" d="M2.38,71.48a3.26,3.26,0,0,1,.45-6.28A18.44,18.44,0,0,0,2.38,71.48Z"/><path class="cls-1" d="M38.1,113.68h0l-5.3-4v7.58H6.7V91.21H22.47c0-.78-.06-1.58,0-2.37A21.93,21.93,0,0,1,19,88.48a22.25,22.25,0,0,1-8.9-3.76H3.44A3.25,3.25,0,0,0,.18,88v32.57a3.25,3.25,0,0,0,3.25,3.25H36.06a3.26,3.26,0,0,0,3.26-3.25v-6Z"/><path class="cls-1" d="M36.06,0H3.44A3.24,3.24,0,0,0,.18,3.24V35.88a3.26,3.26,0,0,0,3.26,3.26H6.28c.24-.62.51-1.23.81-1.85a20.88,20.88,0,0,1,3.11-4.67H6.7V6.52H32.75V14A38.52,38.52,0,0,1,39.27,3.41V3.26A3.26,3.26,0,0,0,36.06,0Z"/><path class="cls-1" d="M120.7,0H88.13a3.24,3.24,0,0,0-3,2,15.1,15.1,0,0,1,3.13,4.22,77.12,77.12,0,0,1,3.14,7.3v-7h26.05v26h-7.14a18.33,18.33,0,0,1,3.14,6.52h7.26A3.26,3.26,0,0,0,124,35.88V3.26A3.26,3.26,0,0,0,120.71,0Z"/><path class="cls-1" d="M26.23,104v3.5A3.24,3.24,0,0,1,23,110.74H16.47a3.24,3.24,0,0,1-3.26-3.24V101a3.25,3.25,0,0,1,3.2-3.3H23a4.34,4.34,0,0,1,.51,0Z"/><path class="cls-1" d="M26.23,16.29V22.8A3.24,3.24,0,0,1,25,25.4c-1.1.17-2.2.38-3.27.65H16.47a3.24,3.24,0,0,1-3.26-3.24h0V16.29A3.24,3.24,0,0,1,16.45,13H23a3.24,3.24,0,0,1,3.25,3.25Z"/><path class="cls-1" d="M101.15,26.05h6.52a3.24,3.24,0,0,0,3.25-3.25h0V16.29A3.24,3.24,0,0,0,107.68,13h-6.53a3.25,3.25,0,0,0-3.3,3.2V22.8a3.25,3.25,0,0,0,3.25,3.25Z"/><path class="cls-1" d="M118.66,102.23h-10.6a5.3,5.3,0,0,0-5.3,5.3h0v10.61a5.3,5.3,0,0,0,5.3,5.3h10.6a5.31,5.31,0,0,0,5.31-5.3V107.54A5.31,5.31,0,0,0,118.66,102.23Zm-.82,12.85a2.23,2.23,0,0,1-2.24,2.23h-4.47a2.23,2.23,0,0,1-2.24-2.22h0v-4.45a2.22,2.22,0,0,1,1-1.87,2.13,2.13,0,0,1,1.22-.36h4.46a2.23,2.23,0,0,1,2.25,2.22h0Z"/><path class="cls-1" d="M6.09,52.87a14.31,14.31,0,0,0,2.2,3.25,25,25,0,0,0-2.21,2.5H3.44a3.25,3.25,0,1,1-.36-6.5H5.73C5.84,52.37,6,52.61,6.09,52.87Z"/><path class="cls-1" d="M124,55.37a3.25,3.25,0,0,1-3.24,3.25h-4a21.55,21.55,0,0,0-5.18-4.9,13,13,0,0,0,1-1.6h8.07a3.25,3.25,0,0,1,3.3,3.19Z"/><path class="cls-1" d="M124,68.4a3.25,3.25,0,0,1-3.25,3.25h-.29a19.42,19.42,0,0,0-.41-6.49h.71A3.26,3.26,0,0,1,124,68.4Z"/><path class="cls-1" d="M45.78,118.26a39.07,39.07,0,0,0,6.52,2.2v.06a3.26,3.26,0,1,1-6.52,0Z"/><path class="cls-1" d="M70.88,120.43a40.16,40.16,0,0,0,7.47-2.71v2.8a3.26,3.26,0,0,1-3.25,3.25h-13a3.27,3.27,0,0,1-3.11-2.3c.85.06,1.72.09,2.58.09A38.78,38.78,0,0,0,70.88,120.43Z"/><path class="cls-1" d="M39.27,114.55q-.6-.42-1.17-.87Z"/><path class="cls-1" d="M62.13,26.05h0Z"/><path class="cls-1" d="M68.74,89.54a13.65,13.65,0,0,1-3.06,2.66,11.69,11.69,0,0,1-7.78,1.67,10.26,10.26,0,0,1-3.53-1.64l-.31-.35h1.69a33.69,33.69,0,0,0,6.34-.67h0l1.31-.29h0c1.11-.26,2.23-.57,3.35-.93C68.74,89.34,68.74,89.34,68.74,89.54Z"/><path class="cls-1" d="M87.19,65.27a2,2,0,0,1-.54.62,4.12,4.12,0,0,1-1.07.48A3.34,3.34,0,0,1,87.19,65.27Z"/><path class="cls-1" d="M13.61,66.85c-.08.16-.16.34-.23.51A2.34,2.34,0,0,1,13.61,66.85Z"/><path xmlns="http://www.w3.org/2000/svg" class="" fill="#000" d="M115.42,66.78a11.78,11.78,0,0,0-.57-1.64,15.65,15.65,0,0,0-5.34-6.52,16.94,16.94,0,0,0-2.35-1.4,29.38,29.38,0,0,0-4.82-1.71l-.55-.12,1.47-1A21,21,0,0,0,106,52.1,13.14,13.14,0,0,0,108.55,49a8.87,8.87,0,0,0,.78-5.39,19.39,19.39,0,0,0-1-4.5A11.9,11.9,0,0,0,103,32.55a20.65,20.65,0,0,0-6.62-2.36c-1-.2-2.57-.45-3.48-.57l-1.56-.19h-.07l-1-3.16A162.92,162.92,0,0,0,84.9,10.78c-.45-1-.9-2-1.35-2.89a8.91,8.91,0,0,0-5.17-4.54,10.73,10.73,0,0,0-4.71-.43c-.42.06-1.12.2-1.8.35l-1,.24C65,5.1,64.79,5.13,62.75,5a22.47,22.47,0,0,1-5.57-1,19.07,19.07,0,0,0-4.89-1H51c-2.28,0-2.59,0-3.58.42a10.44,10.44,0,0,0-1.67.84,13.64,13.64,0,0,0-2.41,1.87c-2.27,2.27-4.75,6.5-6.72,11.51-.62,1.55-2.66,7.7-2.66,8s-.22.32,3.49-.46c2.8-.58,5.58-1.07,8.3-1.47,2.21-.32,4.38-.59,6.52-.79s4.4-.36,6.52-.43a83.5,83.5,0,0,1,14,.56c1.73.23,3.63.55,5.35.88,3,.58,5.38,1.21,5.72,1.53s.35.3-2.71-.18c-1.19-.18-2.34-.33-3.53-.44-4.86-.47-10-.33-17.69.42l-1.18.12c-2.16.21-2.93.46-1.48.48,1.2,0,2.71.06,4.38.15h.47c4.25.27,9.25.76,12,1.23,3,.5,7.82,1.7,7.64,1.86s-9.53.5-17.81.72c-4.17.12-7.36.15-11.7.09l-5.06,0H45.78a163,163,0,0,0-16.54.21c-10,.87-14.95,3.5-17.87,9.35a16.25,16.25,0,0,0-1.66,6.07c-.25,2.28-.12,3.26.62,4.7a9.08,9.08,0,0,0,1.31,2,18.45,18.45,0,0,0,4.24,3.38l1.44.91-1,.45a16,16,0,0,0-3,1.76A16.66,16.66,0,0,0,8,65.15a13.17,13.17,0,0,0,.15,10c1.79,4,6.11,7.18,11.17,8.15a23.48,23.48,0,0,0,7.39,0c.74-.15,1.39-.26,1.44-.26a3.57,3.57,0,0,1-.06,1.13c-1.14,6.1-.44,12.3,1.84,16.45.9,1.64,3.24,4.45,3.49,4.18a3.59,3.59,0,0,0-.35-1.24c-1.33-3.51-1.89-5.81-1.89-7.51v-1l.54,1.61a30.33,30.33,0,0,0,5.43,9.39,29.06,29.06,0,0,0,8.63,6.87,32.46,32.46,0,0,0,6.52,2.59,34.27,34.27,0,0,0,17.36.28c.71-.18,1.43-.39,2.18-.63a35.38,35.38,0,0,0,6.51-2.89c.44-.24.85-.49,1.25-.75a27.77,27.77,0,0,0,5.3-4.44,32.2,32.2,0,0,0,6.49-10.49V99A32.39,32.39,0,0,1,90.11,103a14.07,14.07,0,0,0-.59,1.69c0,.12.42-.2.94-.7.32-.32.63-.66.93-1a19,19,0,0,0,4-11.81,32.11,32.11,0,0,0-.43-6.5v-.19a12.54,12.54,0,0,1-.19-1.37s.6.09,1.29.22a25.75,25.75,0,0,0,7.54,0c6-1.29,10.32-5.06,11.78-10.16a8.81,8.81,0,0,0,.27-1.52A14.27,14.27,0,0,0,115.42,66.78ZM29.16,76.5c-5.5,2.78-11.69,1.73-14.95-2.53a6.6,6.6,0,0,1-.88-6.55h0a2.5,2.5,0,0,1,.23-.5h0a10.89,10.89,0,0,1,6.37-5.27c1.43-.49,1.45-.49,1.58.1.27,1.39.2,1.52-1.28,2.24a9.46,9.46,0,0,0-2,1.27,11.39,11.39,0,0,0-3.47,5.08,8.43,8.43,0,0,0-.27.85h0c-.14.53-.05.55.3.29h.09a12,12,0,0,1,7.22-2.54h1.35l.78,1.1a16.64,16.64,0,0,0,1.3,1.61,23.38,23.38,0,0,0,3.14,3L30.31,76ZM92.1,56.38a34.08,34.08,0,0,1-1.88,8.76c-.13.34-.26.65-.4.94-.76,1.6-2.29,2.65-4.83,3.2a20.27,20.27,0,0,1-3,.41c-2,.15-2,.11-1.4,1a29.71,29.71,0,0,1,3.6,10.76,49.85,49.85,0,0,1,0,8.81A27.69,27.69,0,0,1,81,100.1c-.82,1.34-2.41,3.37-2.2,2.8.91-2.44,1.48-5.58,1.19-6.66-.14-.56,0-.7-1.29,1.49a5.15,5.15,0,0,1-.33.56,25.55,25.55,0,0,1-6.49,7.36,20,20,0,0,1-2.27,1.47,17,17,0,0,1-13,1.35,18.49,18.49,0,0,1-4.3-2,22.94,22.94,0,0,1-6.45-6.16,28.27,28.27,0,0,1-2-3.22,4.56,4.56,0,0,0-.78-1.21A3.72,3.72,0,0,0,43,97.25a18,18,0,0,0,1,5.19c.45,1.25.17,1-1.09-.87a28.13,28.13,0,0,1-3.91-9.73,24,24,0,0,1-.38-5.68,27.89,27.89,0,0,1,.38-6,27.34,27.34,0,0,1,2.85-8.56l.26-.45c.45-.81.65-1.3.53-1.35a13.46,13.46,0,0,0-1.53-.16c-4.22-.34-6.56-1.3-7.65-3.13a12.2,12.2,0,0,1-.66-1.42,31.65,31.65,0,0,1-1.58-6.52c-.11-.77-.19-1.55-.25-2.32a23.33,23.33,0,0,1,.19-4.18,7.61,7.61,0,0,1,.26-1.26c.41-1.39,2.16-2.78,4.12-3.3a8.32,8.32,0,0,0,2-1,23.44,23.44,0,0,1,7.9-3.18A18.07,18.07,0,0,1,50.19,43a18.74,18.74,0,0,1,5.12.42,27.63,27.63,0,0,1,4,1.2c.61.26.23-.21-.74-.95a20.32,20.32,0,0,0-10-3.68l-1.68-.2.92-.2a20.52,20.52,0,0,1,6.9.37,30,30,0,0,1,5.85,2.24l.92.5,1.86-.9a21.55,21.55,0,0,1,8.52-2.37h1.54a19.28,19.28,0,0,1,2.26.25c.43.12.3.17-.82.27a27.69,27.69,0,0,0-3,.46,19.86,19.86,0,0,0-2.18.55,25.29,25.29,0,0,0-5.46,2.84,4.73,4.73,0,0,0-.92.81,6.22,6.22,0,0,0,1.46-.41A20.24,20.24,0,0,1,71.86,43h1a17.86,17.86,0,0,1,5.15.46l.38.1a21.66,21.66,0,0,1,7.07,3,8.86,8.86,0,0,0,2.08,1c2.17.67,3.74,1.91,4.15,3.29A23.06,23.06,0,0,1,92.1,56.38Zm17.61,15.27a7.78,7.78,0,0,1-2.23,3.51,11.57,11.57,0,0,1-11.39,2.32,14.34,14.34,0,0,1-3.37-1.56,12.92,12.92,0,0,1,1.38-1.17,27.21,27.21,0,0,0,3.26-3.09A13.72,13.72,0,0,0,98.7,70l.7-1.06,1.84.1a9.76,9.76,0,0,1,3,.5,15.13,15.13,0,0,1,3.44,1.65,1.08,1.08,0,0,0,.53.27,11.83,11.83,0,0,0-1.31-3.48,12.41,12.41,0,0,0-2.43-2.79,10,10,0,0,0-2.26-1.47l-.88-.4v-1.1a4.6,4.6,0,0,1,.06-1l1,.3a11.71,11.71,0,0,1,5.74,3.71c.18.24.35.47.51.72A6.87,6.87,0,0,1,109.71,71.65Z" style="&#10;    /* fill: red; */&#10;"/><path xmlns="http://www.w3.org/2000/svg" class="" fill="#000" d="M59.23,58.62a.18.18,0,0,1-.07.17,20.41,20.41,0,0,1-3.91,6.35,7.5,7.5,0,0,1-2.11,1.64c-2.31,1.06-12.17.82-15.86-.39a2.47,2.47,0,0,1-1.52-1.2,9.62,9.62,0,0,1-.83-2c-.32-1.05-.71-2.52-.86-3.31-.06-.34-.12-.73-.16-1.17a29.86,29.86,0,0,1-.12-6,2.33,2.33,0,0,1,.09-.52,1.78,1.78,0,0,1,.66-1.39c.66-.6,2.09-1,4.53-1.22a88,88,0,0,1,12,.26c3.71.58,6.22,1.31,7.61,2.22a3,3,0,0,1,1.12,1.13C60.31,54.23,60.06,56.54,59.23,58.62Z"/><path xmlns="http://www.w3.org/2000/svg" class="" fill="#000" d="M89.35,56.16c-.08.81-.17,1.59-.27,2.32h0a19.59,19.59,0,0,1-1.88,6.79,3.34,3.34,0,0,0-1.61,1.1,32.39,32.39,0,0,1-7.39,1,40.5,40.5,0,0,1-6.13-.16A10.23,10.23,0,0,1,70,66.78c-2.21-.81-5-4.73-6.37-8.54a15.09,15.09,0,0,1-.7-2.66c-.23-1.47-.06-2.32.77-3a5.71,5.71,0,0,1,1-.63,23,23,0,0,1,7.21-2c.64-.09,1.31-.17,2-.23s2.59-.11,4.54-.11h1.53c6.14.08,8.24.5,9,1.84a3.22,3.22,0,0,1,.34.91A12.07,12.07,0,0,1,89.35,56.16Z"/><path xmlns="http://www.w3.org/2000/svg" class="" fill="#000000" d="M60.56,74a6.63,6.63,0,0,1-1.75-.45,13.58,13.58,0,0,1-1.71-.64,3.42,3.42,0,0,1-1.36-1.28c-.78-1.32-.62-3.09.69-3.75a2.76,2.76,0,0,1,3.26.77,2.64,2.64,0,0,1,.9,1.68A10.77,10.77,0,0,1,60.56,74Z"/><path xmlns="http://www.w3.org/2000/svg" class="" fill="#000" d="M67.43,71.28A4,4,0,0,1,65.63,73l-.31.14a17.08,17.08,0,0,1-3,.87s0-.87-.06-1.87a5.43,5.43,0,0,1,.32-2.56,3.49,3.49,0,0,1,2-1.79,2.4,2.4,0,0,1,2.88,1A4,4,0,0,1,67.43,71.28Z"/><path xmlns="http://www.w3.org/2000/svg" class="" fill="#000" d="M79.91,86.76c0,.29-.08.32-.52.25-.17,0-.54-.08-1-.12l-1.13-.1a22.56,22.56,0,0,0-5.38.36c-1.66.27-3.75.69-6.56,1.3l-.37.09a51.73,51.73,0,0,1-5.67,1l-1.49.14a22.58,22.58,0,0,1-7-.48A23.74,23.74,0,0,1,46.13,87,22.11,22.11,0,0,1,43,84.2a1.57,1.57,0,0,1-.27-.49s.75.3,1.56.69a21.79,21.79,0,0,0,10.87,2.36,32.63,32.63,0,0,0,3.7-.19c.92-.1,2-.23,3.44-.43l3-.43a37.53,37.53,0,0,1,6.52-.49h.22a21.24,21.24,0,0,1,6.29.77h.17C79.64,86.36,79.91,86.49,79.91,86.76Z"/><path xmlns="http://www.w3.org/2000/svg" class="" fill="#000" d="M68.74,89.54a13.65,13.65,0,0,1-3.06,2.66,11.69,11.69,0,0,1-7.78,1.67,10.26,10.26,0,0,1-3.53-1.64l-.31-.35h1.69a33.69,33.69,0,0,0,6.34-.67h0l1.31-.29h0c1.11-.26,2.23-.57,3.35-.93C68.74,89.34,68.74,89.34,68.74,89.54Z"/><circle class="cls-1" cx="91.12" cy="117.53" r="5.89"/><circle class="cls-1" cx="97.09" cy="107.03" r="2.31"/><path class="cls-1" d="M99.51,94.15h21.14A3.34,3.34,0,0,0,124,90.83h0a3.33,3.33,0,0,0-3.33-3.32h-21s.16,1.8.16,3.11A34.06,34.06,0,0,1,99.51,94.15Z"/><path class="cls-1" d="M194.07,70.87a30.8,30.8,0,0,1-13.51,3,30.23,30.23,0,0,1-26.73-15.55,31.71,31.71,0,0,1-4-15.76,31.77,31.77,0,0,1,4-15.72,30.66,30.66,0,0,1,53.5,0,31.55,31.55,0,0,1,4.06,15.72,32.21,32.21,0,0,1-2.8,13.33,30.19,30.19,0,0,1-7,9.76l4.1,6.08-7.65,5ZM180.58,20.6A20.68,20.68,0,0,0,170,23.4a20.9,20.9,0,0,0-7.62,7.83,22.67,22.67,0,0,0-2.85,11.36A22.67,22.67,0,0,0,162.41,54a20.49,20.49,0,0,0,18.17,10.62,21.34,21.34,0,0,0,8.19-1.64L182,52.75l7.59-5.2,6.69,10a20.91,20.91,0,0,0,3.58-5.82,23.81,23.81,0,0,0,1.74-9.17,22.91,22.91,0,0,0-2.81-11.4,20.53,20.53,0,0,0-7.63-7.79A20.84,20.84,0,0,0,180.58,20.6Z"/><path class="cls-1" d="M250.51,72.62,234.94,49.29h-6.85V72.62h-9.56V12.56h20.76a20,20,0,0,1,9.46,2.32,18.32,18.32,0,0,1,7.05,6.54,17.62,17.62,0,0,1,2.66,9.48,17.15,17.15,0,0,1-2,8.09,18.13,18.13,0,0,1-5.37,6.24,19.52,19.52,0,0,1-5.78,2.91L260.66,70.4v2.19ZM238.89,40.13a10.56,10.56,0,0,0,4.9-1.2,9.19,9.19,0,0,0,3.56-3.3,8.74,8.74,0,0,0,.16-9,9.46,9.46,0,0,0-3.3-3.41,9,9,0,0,0-4.83-1.25H228.09V40.17Z"/><path class="cls-1" d="M283.08,73.9a21.75,21.75,0,0,1-11.37-3,21.36,21.36,0,0,1-7.87-8.3A24.46,24.46,0,0,1,261,50.83a24.74,24.74,0,0,1,2.8-11.78,20.84,20.84,0,0,1,7.88-8.3,21.78,21.78,0,0,1,11.36-3,20.7,20.7,0,0,1,12,3.33A18.23,18.23,0,0,1,302,40l.49,1.28-8.78,3.61-.52-1.33a10.35,10.35,0,0,0-4-5.05,11.43,11.43,0,0,0-6.44-1.72,11,11,0,0,0-6,1.73,12.91,12.91,0,0,0-4.5,5,15.58,15.58,0,0,0-1.69,7.37,15.55,15.55,0,0,0,1.67,7.39,12.91,12.91,0,0,0,4.5,5,10.91,10.91,0,0,0,6,1.73,12.08,12.08,0,0,0,6.65-1.77,10.47,10.47,0,0,0,4.1-5l.54-1.33,8.71,3.66-.58,1.28A19.41,19.41,0,0,1,295,70.57,20.87,20.87,0,0,1,283.08,73.9Z"/><path class="cls-1" d="M326.63,73.9a22,22,0,0,1-11.5-3.08,21.48,21.48,0,0,1-8-8.38,25.08,25.08,0,0,1,0-23.25,21.52,21.52,0,0,1,8-8.37,23.07,23.07,0,0,1,23,0,21.66,21.66,0,0,1,8,8.37,25.19,25.19,0,0,1,0,23.25,21.62,21.62,0,0,1-8,8.38A22,22,0,0,1,326.63,73.9Zm0-37.15a12.38,12.38,0,0,0-11,6.54,15.33,15.33,0,0,0-1.78,7.54,15.35,15.35,0,0,0,1.78,7.54,12.4,12.4,0,0,0,11,6.53,12.33,12.33,0,0,0,6.27-1.68,12.48,12.48,0,0,0,4.66-4.85,15.25,15.25,0,0,0,1.79-7.54,15.19,15.19,0,0,0-1.79-7.53,12.33,12.33,0,0,0-10.93-6.55Z"/><path class="cls-1" d="M372.74,73.9a19.62,19.62,0,0,1-10.64-3,21.1,21.1,0,0,1-7.49-8.25,25.16,25.16,0,0,1-2.72-11.83,25.27,25.27,0,0,1,2.72-11.76,21,21,0,0,1,7.49-8.3,19.53,19.53,0,0,1,10.64-3,17.92,17.92,0,0,1,9.1,2.31,18.49,18.49,0,0,1,3.54,2.61l-.09-1.8V12.56h9.65V72.62h-9.32V68.77a19.83,19.83,0,0,1-3.77,2.8A18,18,0,0,1,372.74,73.9Zm.79-37.15a10.89,10.89,0,0,0-5.89,1.7,12.49,12.49,0,0,0-4.47,4.93,15.66,15.66,0,0,0-1.72,7.45,16,16,0,0,0,1.72,7.45,12.53,12.53,0,0,0,4.47,4.92,11.09,11.09,0,0,0,11.81,0,12.65,12.65,0,0,0,4.45-4.9,15.68,15.68,0,0,0,1.71-7.48,15.64,15.64,0,0,0-1.71-7.47,12.67,12.67,0,0,0-4.46-4.9,10.74,10.74,0,0,0-5.91-1.7Z"/><path class="cls-1" d="M421.31,73.9a21.34,21.34,0,0,1-11.2-3,20.84,20.84,0,0,1-7.75-8.27,24.66,24.66,0,0,1-2.77-11.73,25.73,25.73,0,0,1,2.59-11.5,21.08,21.08,0,0,1,7.4-8.51,19.84,19.84,0,0,1,11.2-3.16,21,21,0,0,1,11.12,2.89,19.14,19.14,0,0,1,7.29,8A25.36,25.36,0,0,1,441.71,50a9.61,9.61,0,0,1-.29,2.45l-.28,1.05H409.36a13.83,13.83,0,0,0,1.9,5.65,11.72,11.72,0,0,0,4.52,4.29,12.35,12.35,0,0,0,5.77,1.43c4.72,0,8.26-2.17,10.84-6.63l.65-1.15,8.29,4-.7,1.31A22,22,0,0,1,433,70.76,21.32,21.32,0,0,1,421.31,73.9Zm10.12-28.82a12.76,12.76,0,0,0-1.09-3,9.48,9.48,0,0,0-3.52-3.75,11.3,11.3,0,0,0-6.14-1.53,10,10,0,0,0-7.15,2.69,13,13,0,0,0-3.48,5.64Z"/><path class="cls-1" d="M367.73,107.58a11.76,11.76,0,0,1-5.91-1.53,11.21,11.21,0,0,1-4.18-4.22,12.42,12.42,0,0,1,0-11.89,11.36,11.36,0,0,1,4.18-4.22,11.65,11.65,0,0,1,5.91-1.52,10.88,10.88,0,0,1,8.2,3.68l.44.5-2.83,2.74-.49-.58a7.15,7.15,0,0,0-2.39-1.94,6.84,6.84,0,0,0-3-.6,7.72,7.72,0,0,0-3.85,1,7.41,7.41,0,0,0-2.72,2.7,9,9,0,0,0,0,8.31,7.37,7.37,0,0,0,2.78,2.76,7.72,7.72,0,0,0,3.85,1,7.43,7.43,0,0,0,6-2.89l.49-.57,2.85,2.75-.43.51a11.13,11.13,0,0,1-3.85,2.92A11.58,11.58,0,0,1,367.73,107.58Z"/><path class="cls-1" d="M388.59,107.11v-10a3.32,3.32,0,0,0-.8-2.47,3,3,0,0,0-2.19-.77,2.86,2.86,0,0,0-1.74.57A4.47,4.47,0,0,0,382,98v9h-3.92V84.72H382v7a8.67,8.67,0,0,1,.89-.6,6.51,6.51,0,0,1,3.28-.86,6,6,0,0,1,4.68,1.85,6.78,6.78,0,0,1,1.62,4.72v10.31Z"/><path class="cls-1" d="M394.86,107.11V90.7h3.89v16.39Zm2-17.73a2.52,2.52,0,0,1-2.51-2.5,2.34,2.34,0,0,1,.75-1.76,2.5,2.5,0,0,1,3.54,0,2.53,2.53,0,0,1,.72,1.73,2.49,2.49,0,0,1-2.5,2.5Z"/><path class="cls-1" d="M420.94,107.11v-10a3.85,3.85,0,0,0-.67-2.55,2.54,2.54,0,0,0-2-.7,2.66,2.66,0,0,0-1.61.51,3.67,3.67,0,0,0-1.19,1.46,4.71,4.71,0,0,0-.45,2V107h-3.91V97.21a4,4,0,0,0-.67-2.58,2.53,2.53,0,0,0-2-.7,2.74,2.74,0,0,0-1.61.52,3.76,3.76,0,0,0-1.19,1.49A4.9,4.9,0,0,0,405.2,98v9.11h-3.92V90.7h3.81v1.08a6.75,6.75,0,0,1,1-.69,5.94,5.94,0,0,1,3.09-.87,5.77,5.77,0,0,1,3.26.92,5.08,5.08,0,0,1,1.44,1.37,6.62,6.62,0,0,1,1.64-1.39,6.5,6.5,0,0,1,3.41-.9,5.47,5.47,0,0,1,4.44,1.83,7.19,7.19,0,0,1,1.47,4.73v10.31Z"/><path class="cls-1" d="M426.87,113.45V90.7h3.8v1.15a6.89,6.89,0,0,1,1.1-.75,6.71,6.71,0,0,1,3.42-.88,7.54,7.54,0,0,1,4,1.13A7.86,7.86,0,0,1,442,94.48a10.07,10.07,0,0,1,0,8.83,7.88,7.88,0,0,1-2.84,3.11,7.37,7.37,0,0,1-4,1.14,6.71,6.71,0,0,1-3.42-.88,5.91,5.91,0,0,1-1-.65v7.4Zm8-19.52a3.92,3.92,0,0,0-2.06.59,4.27,4.27,0,0,0-1.56,1.73,6.2,6.2,0,0,0,0,5.32,4.27,4.27,0,0,0,1.56,1.73,3.92,3.92,0,0,0,2.06.59,3.85,3.85,0,0,0,2.06-.59,4.49,4.49,0,0,0,1.58-1.74,6.06,6.06,0,0,0,0-5.29A4.37,4.37,0,0,0,437,94.52a3.85,3.85,0,0,0-2.06-.59Z"/></g></g></g></g></svg>