<?xml version="1.0" encoding="utf-8"?>
<!-- Generator: Adobe Illustrator 23.0.6, SVG Export Plug-In . SVG Version: 6.00 Build 0)  -->
<svg version="1.1" id="Layer_1" xmlns="http://www.w3.org/2000/svg" xmlns:xlink="http://www.w3.org/1999/xlink" x="0px" y="0px"
	 viewBox="0 0 190 190" style="enable-background:new 0 0 190 190;" xml:space="preserve">
<style type="text/css">
	.st0{fill:#4D77FA;}
	.st1{fill:#151619;}
	.st2{fill:#FFFFFF;}

@keyframes rotating {
  from {
    -ms-transform: rotate(0deg);
    -moz-transform: rotate(0deg);
    -webkit-transform: rotate(0deg);
    -o-transform: rotate(0deg);
    transform: rotate(0deg);
  }
  to {
    -ms-transform: rotate(360deg);
    -moz-transform: rotate(360deg);
    -webkit-transform: rotate(360deg);
    -o-transform: rotate(360deg);
    transform: rotate(360deg);
  }
}
@keyframes spin{
  from {

  -ms-transform: rotate(-360deg);
    -moz-transform: rotate(-360deg);
    -webkit-transform: rotate(-360deg);
    -o-transform: rotate(-360deg);
    transform: rotate(-360deg);
    
  }
  to {
    -ms-transform: rotate(0deg);
    -moz-transform: rotate(0deg);
    -webkit-transform: rotate(0deg);
    -o-transform: rotate(0deg);
    transform: rotate(0deg);
  }
}

@keyframes rotate {
  from { transform: rotate(360deg); }
  to { transform: rotate(0deg); }
  
}

.qr-code{
    animation: rotating 2s infinite linear;
    transform-origin:50% 50%;
}
.qr-code-1{
    animation: rotate 2s linear infinite;
  transform-box: fill-box;
  transform-origin: center;

}

</style>
<g class="qr-code">
    <g class="qr-code-1">
    <g class="qr-dot-1-inner">
	<path class="st0" d="M36,148.9c0,1.1,0.9,2,2,2h19.9c1.1,0,2-0.9,2-2v-20.5c0-1.1-0.9-2-2-2H38c-1.1,0-2,0.9-2,2V148.9z M40,130.5
		h15.9v16.4H40V130.5z"/>

         <path class="st0" d="M49.9,134.6h-4c-1.1,0-2,0.9-2,2v4.1c0,1.1,0.9,2,2,2h4c1.1,0,2-0.9,2-2v-4.1C51.9,135.5,51,134.6,49.9,134.6z
    "/>

    </g>
        </g>

    <g class="qr-code-1">
        <path class="st0" d="M57.9,39H38c-1.1,0-2,0.9-2,2v20.5c0,1.1,0.9,2,2,2h19.9c1.1,0,2-0.9,2-2V41.1C59.9,39.9,59,39,57.9,39z
            M55.9,59.5H40V43.1h15.9V59.5z"/>

        <path class="st0" d="M45.9,55.4h4c1.1,0,2-0.9,2-2v-4.1c0-1.1-0.9-2-2-2h-4c-1.1,0-2,0.9-2,2v4.1C43.9,54.5,44.8,55.4,45.9,55.4z"
		/>
    </g>

    <g class="qr-code-1">
        <path class="st0" d="M154,41.1c0-1.1-0.9-2-2-2h-19.9c-1.1,0-2,0.9-2,2v20.5c0,1.1,0.9,2,2,2H152c1.1,0,2-0.9,2-2V41.1z M150,59.5
            h-15.9V43.1H150V59.5z"/>
        <path class="st0" d="M140.1,55.4h4c1.1,0,2-0.9,2-2v-4.1c0-1.1-0.9-2-2-2h-4c-1.1,0-2,0.9-2,2v4.1C138.1,54.5,139,55.4,140.1,55.4z
            "/></g>

    <g class="qr-code-1">
        <path class="st0" d="M153.8,148.9v-20.5c0-1.1-0.9-2-2-2h-19.9c-1.1,0-2,0.9-2,2v20.5c0,1.1,0.9,2,2,2h19.9
            C152.9,151,153.8,150.1,153.8,148.9z M149.8,146.9h-15.9v-16.4h15.9V146.9z"/>
        <path class="st0" d="M139.9,142.8h4c1.1,0,2-0.9,2-2v-4.1c0-1.1-0.9-2-2-2h-4c-1.1,0-2,0.9-2,2v4.1
            C137.9,141.9,138.8,142.8,139.9,142.8z"/>
    </g>
</g>
<g transform="translate(0.000000,842.000000) scale(0.100000,-0.100000)">
	<path class="st0" d="M727.9,6921c-4,2.8-7.8,5.7-11.7,8.8L727.9,6921z"/>
	<path class="st0" d="M957.4,7808.9h-0.7c-1.4,0-2.8,0.1-4.2,0.3C954.2,7809.1,955.8,7809,957.4,7808.9z"/>
	<path class="st1" d="M1023.7,7171.9c0-2.6-20.9-20.7-30.7-26.7c-24.9-14.9-55.2-21.4-78.1-16.7c-10.7,2.2-31.2,11.7-35.4,16.3
		l-3.2,3.5h17c19.8,0,41.3,2.4,63.6,6.8h0c4.3,0.8,8.7,1.8,13.1,2.8l0,0c11.1,2.6,22.3,5.7,33.5,9.3
		C1023.7,7173.9,1023.7,7173.9,1023.7,7171.9z"/>
	<path class="st0" d="M1208.8,7415.4c-1.8-2.8-3.6-4.9-5.5-6.2c-2.5-1.7-6.1-3.3-10.7-4.7
		C1196.7,7409.5,1202.3,7413.4,1208.8,7415.4z"/>
	<path class="st0" d="M470.4,7399.6c-0.8-1.6-1.5-3.5-2.2-5.1C468.8,7396.3,469.6,7398,470.4,7399.6z"/>
	<path class="st2" d="M1543.5,7345.4c-0.9-8.3-2.4-16.1-4.3-22.9c-19.8-69-77.9-120.3-155.6-137.2c-13.4-2.9-30.5-3.8-42.5-4
		c0.5-9.4,0.5-18.7,0.2-27.7c-1.9-59.3-20-110.9-52.3-149.2c-3.8-4.6-8.1-9.2-12.5-13.6c-7.9-7.6-22.2-21.5-44.1-21.5h-3.4
		c-2.3-2.6-4.6-5.1-6.9-7.7c-19-20.4-40-38.2-62.4-52.8c-4.6-3-9.5-5.9-14.7-8.9c-22.9-13.1-48.7-24.6-74.7-33.1
		c-8.5-2.8-17.1-5.3-25.5-7.4c-30.5-7.5-61.9-11.3-93.5-11.3c-36,0-71.7,4.9-106.1,14.5c-26.1,7.3-51.5,17.4-75.4,30
		c-14.9,7.9-29.1,16.7-42.4,26.4c-4.3,3.1-8.6,6.3-12.7,9.7c-15.2,12.1-29.2,25.3-41.9,39.7h-4.2c-35.5,0-64.3,42.5-78.3,67.9
		c-21.5,39.1-31.8,90.9-29.8,145.1c-11,0.2-27.3,1-41.8,3.8c-66.9,12.7-123.7,55.1-148.3,110.6c-19.8,44.8-20.7,97.7-2.3,141.3
		c10.3,24.7,28.6,49.6,51.4,70.4c-2.3,2.3-4.4,4.7-6.5,7c-8.2,9.4-14.9,19.4-20.3,30.3c-13.2,26-14.1,47.2-11,74.8
		c3,29.8,9.2,52.3,21.4,77.3c46.4,94.5,137.3,114.6,220,121.7c0.8,0.1,1.6,0.2,2.5,0.2c4.2,25.6,29.3,92.1,29.6,92.8
		c22.5,57.1,50.4,104.1,78.4,132.2c10,9.9,21.5,18.8,33.7,26.2c8.3,5.2,16.9,9.5,25.3,12.6c16,6.2,26.3,7.4,47.1,7.4
		c0,0,7.1-0.1,7.4-0.1c4.9,0,9.2,0,12.9-0.1c19.1-0.5,28.8-3,57.6-10.5l2.6-0.7c29.7-7.8,34.6-8.4,45.9-8.9c2.8-0.2,5.2-0.3,7.5-0.3
		c6.3,0,16.8,2.7,58.7,14c3.3,0.9,7.1,1.8,11,2.7c6.8,1.5,16,3.5,23.1,4.4c7.3,0.9,14.2,1.3,20.9,1.3c17,0,33.4-2.6,48.8-7.8
		c35.2-11.9,63.8-37,80.6-70.6c5-9.9,9.8-20.3,14.6-31.5c16.2-37.2,33.2-85.2,56.8-160.4l0.4-1.3c7.9-1.3,16.3-2.7,22.5-4
		c32.6-6.4,59.5-16.2,82.4-29.8c35.8-21.2,61-52,75.1-91.6c6-17.2,10.1-36.4,12.1-57.2c3.3-32.6-0.2-55.3-12.6-80.7
		c-4.4-9.2-10.9-18.3-17.7-26.5c3.9-2.5,7.8-5.1,11.5-7.8c31.9-22.7,56.3-52.7,70.5-86.6c3.1-7.3,5.8-14.9,7.9-22.6
		C1546.1,7392.2,1545.8,7364.4,1543.5,7345.4z"/>
	<path class="st1" d="M1492,7400.3c-1.5,5.6-3.4,11-5.7,16.4c-10.7,25.3-29.4,48.1-53.6,65.4c-7.3,5.3-15.2,10-23.4,14.2
		c-10.5,5.3-33.6,13.3-48.4,17l-5.5,1.3l14.7,9.8c9.4,6.3,19.2,14.5,27.9,23c11.5,11.2,21.1,22.9,25.1,31.4
		c8.2,16.8,10.2,30.7,7.8,54c-1.6,16.8-4.8,31.8-9.6,45.3c-10.1,28.6-27.6,50-53.5,65.4c-18,10.7-40,18.5-66.4,23.7
		c-10.2,2-25.7,4.5-34.9,5.7l-15.7,1.9l-0.6,0.1l-9.8,31.7c-22.4,71.6-38.9,118.7-54.9,155.5c-4.5,10.4-8.9,19.9-13.5,29
		c-11.1,22.3-29.4,38-51.9,45.6c-14.3,4.8-30.3,6.4-47.2,4.3c-4.3-0.5-11.3-2-18.1-3.5c-3.3-0.8-6.6-1.5-9.4-2.3
		c-59.4-16-61.2-16.3-81.7-15.3c-16.2,0.8-25,2.3-55.9,10.5c-29.3,7.6-35.2,9.2-49.1,9.6c-3.5,0.1-7.6,0.1-12.7,0.1
		c-22.8,0.2-26-0.4-35.8-4.2c-5.3-2-11.1-4.9-16.8-8.5c-8.8-5.3-17.4-12-24.2-18.8c-22.7-22.8-47.6-65.2-67.4-115.4
		c-6.2-15.5-26.7-77.2-26.7-80.2c0-2.8-2.2-3.2,35,4.7c28.1,5.8,55.9,10.8,83.3,14.7c22.2,3.2,44,5.9,65.4,7.9
		c22.3,2.1,44.2,3.6,65.5,4.4c50.4,1.9,97.6,0,140.2-5.6c17.4-2.3,36.4-5.5,53.7-8.8c29.5-5.8,54.1-12.1,57.4-15.3
		c3.2-3,3.5-3-27.2,1.8c-11.9,1.8-23.5,3.3-35.4,4.5c-48.8,4.7-100.1,3.2-177.5-4.3c-3.9-0.4-7.8-0.8-11.9-1.2
		c-21.7-2.2-29.4-4.7-14.9-4.8c12-0.1,27.2-0.6,43.9-1.6c1.6-0.1,3.2-0.2,4.9-0.3c42.6-2.6,92.8-7.5,120.8-12.3
		c29.5-5,78.4-17,76.6-18.7c-1.2-1.2-95.6-5-178.7-7.2c-41.9-1.2-73.9-1.5-117.4-0.9c-15.3,0.2-32,0.5-51.1,0.9
		c-4.9,0.1-9.7,0.2-14.3,0.3c-84.5,1.6-128.9,1.1-165.9-2.1c-100.1-8.7-150.5-35-179.3-93.7c-9.7-19.9-14.2-36.4-16.7-60.9
		c-2.5-22.9-1.2-32.7,6.2-47.2c3.4-6.9,7.7-13.3,13.2-19.6c9.8-11.2,23.4-22,42.5-34l14.5-9.2l-10.5-4.5
		c-10.3-4.5-20.5-10.5-30.1-17.7c-23.3-17.3-43.3-41.2-53-64.4c-13-30.9-12.2-69.6,2-101.6c17.9-40.4,61.3-72.1,112-81.7
		c20-3.8,55.4-4,74.2-0.2c7.4,1.5,13.9,2.6,14.4,2.6c0.5,0,0-5-1.2-11.2c-11.3-61.2-4.3-123.5,18.5-165.2c9-16.3,32.5-44.5,35-41.9
		c0.5,0.5-1,6-3.5,12.4c-13.3,35.4-19,58.4-19,75.4l0.2,9.5l5.5-15.8c11.2-32.5,30.9-66.6,54.4-94.3c24-28.2,53.5-51.4,86.6-68.9
		c20.6-10.9,42.6-19.7,65.4-26c55.4-15.5,115.9-17.2,174.1-2.8c7.2,1.8,14.5,3.9,21.9,6.4c22.4,7.4,45.5,17.5,65.4,28.9
		c4.3,2.5,8.5,5,12.5,7.6c19,12.3,36.8,27.4,52.9,44.9c27.9,30,50.6,66.4,65.1,105.3c0.1,0.3,0.2,0.5,0.3,0.8v-24.5
		c-2.9-12.4-7.3-26.5-12.8-40.7c-3.2-8.2-5.8-15.8-5.8-17c0-1.2,4.2,2,9.3,7c3.3,3.2,6.4,6.6,9.3,10.1c25.2,29.9,39,70.7,40.6,118.6
		c0.7,20.6-0.9,42.5-4.8,65.4c-0.1,0.6-0.2,1.3-0.3,1.9c-1.2,7.3-2.2,13.5-1.8,13.7c0.2,0.2,6-0.8,12.9-2.2
		c17.7-3.6,58.5-3.5,75.7,0.2c59.7,13,103.5,50.9,118.1,102.1c1.2,4.3,2.2,9.5,2.8,15.1C1495.9,7367.9,1495.3,7388.1,1492,7400.3z
		 M626.6,7302.7c-55.2-27.9-117.3-17.3-149.6,25.3c-15.2,20.2-17.4,43.9-9,65.7c0,0.1,0,0.2,0.1,0.3v0c0,0.1,0.1,0.1,0.1,0.2
		c0,0.1,0,0.1,0.1,0.2c0,0,0,0,0,0.1c0.6,1.8,1.4,3.5,2.2,5.1c0.1,0.1,0.1,0.2,0.1,0.3l0,0c0,0.1,0,0.1,0.1,0.1
		c10.9,22.4,33.2,42.1,64,52.8c14.3,5,14.5,5,15.9-1c2.6-13.9,2-15.2-12.9-22.3c-6.9-3.4-13.5-7.7-19.6-12.8
		c-15.6-13.1-28.3-31.3-34.8-50.9c-1.3-3.7-2.2-6.5-2.7-8.6v0c-1.4-5.3-0.4-5.4,3.1-2.9c0.3,0.2,0.6,0.4,0.9,0.6
		c22.4,15.8,46,23.8,71.5,23.8h13.5l7.8-11c3.9-5.5,8.3-10.9,13-16.3c8.9-10,19.3-19.8,31.5-29.6l16.3-13.2L626.6,7302.7z
		 M1258.1,7504.6c-2.1-28.5-9.8-64.4-18.9-87.9c-1.3-3.4-2.6-6.6-4-9.4c-7.6-16.1-23.1-26.6-48.5-32.2c-8.7-1.9-18.5-3.2-29.6-4
		c-19.9-1.5-19.5-1.2-14-10.5c17.9-30.2,30.4-68.1,36-108c2.7-19.3,2.5-67.1-0.2-88.4c-4.4-34.2-17.4-73.9-32.6-98.8
		c-8.2-13.5-24.2-33.9-22-28c9.2,24.4,14.9,55.9,12,66.7c-1.5,5.7-0.5,7-13-15c-1.1-1.9-2.2-3.7-3.3-5.6
		c-17.3-28.9-40.1-54.5-65.4-73.3c-7.4-5.6-15-10.5-22.8-14.8c-38.7-21.5-89.1-26.7-130.1-13.5c-15,4.8-29.5,11.6-43.2,20.2
		c-24.4,15.3-46.4,36.4-64.7,61.9c-7.2,10.1-13.8,20.9-19.8,32.4c-3.5,6.5-7,12-7.8,12c-0.7,0-1.3-6.2-1.3-13.7
		c0-14.3,4-35.2,9.8-52.1c4.5-12.7,1.7-10.3-11,8.7c-18.3,28-32,61.9-39.2,97.6c-3.2,16.2-3.8,23.9-3.8,57.1
		c0,32.7,0.6,41.6,3.8,59.6c6.1,34.3,15,60.5,28.6,85.8c0.8,1.5,1.7,3.1,2.6,4.6c4.5,8.2,6.5,13,5.4,13.5c-1.2,0.3-8,1-15.3,1.6
		c-42.4,3.4-65.9,13-76.8,31.4c-2.3,3.9-4.5,8.7-6.6,14.2c-6.6,17.1-12.5,41-15.9,65.4c-1.1,7.8-1.9,15.7-2.5,23.3
		c-0.8,10.7,0.1,28.6,1.9,42c0.7,5.5,1.6,10.3,2.6,13.4c4.2,13.8,21.7,27.8,41.4,33c4.2,1,13.2,5.5,20,10
		c22.9,14.8,48.4,25.2,79.2,32c14,3,21.9,3.7,48.4,3.5c28,0,33.9-0.5,51.2-4.3c16.9-3.8,29.2-7.5,40.2-12c6.2-2.5,2.4,2.2-7.5,9.5
		c-28.2,20.5-59.4,32-100.4,37l-16.9,2l9.2,2c15,3,49.7,1.3,69.2-3.7c17.9-4.5,43.5-14.3,58.7-22.5l9.2-5l18.7,9
		c30.6,14.8,58.8,22.7,85.5,23.8c5.2,0.2,10.3,0.2,15.4-0.1c9.7-0.7,20-1.7,22.7-2.5c4.3-1.2,3-1.7-8.2-2.7
		c-8.4-0.7-19.6-2.5-30-4.6c-8.5-1.7-16.5-3.7-21.9-5.5c-14.2-4.6-44.6-20.3-54.7-28.5c-5.3-4.2-9.5-7.8-9.2-8.2
		c0.3-0.4,7,1.5,14.7,4.2c25.6,8.7,42.5,11.8,71.1,12.3c3.1,0,6.4,0.1,9.8,0.1c28.7-0.2,33.5-0.5,51.7-4.7c1.3-0.3,2.6-0.6,3.9-0.9
		c28.6-6.9,50.3-16,70.9-29.6c6.2-4.2,15.7-8.8,20.9-10.3c21.8-6.7,37.5-19.2,41.7-33C1256.7,7549.8,1259.2,7520.1,1258.1,7504.6z
		 M1434.8,7351.4c-3.6-12.5-11.1-24.4-22.4-35.1c-29-27.4-72.6-36.2-114.3-23.3c-11.4,3.5-34.4,14.3-33.9,15.7
		c0.3,0.6,6.5,6,13.9,11.9c10.9,8.6,23.1,20.2,32.7,30.9c5.6,6.2,10.3,12.2,13.5,17.1l7,10.7l18.5-1c13.4-0.6,21.5-2,30-5
		c13-4.5,27.5-11.5,34.6-16.7c2.5-1.8,5-3,5.3-2.7c1.5,1.5-8.3,27.2-13.2,34.9c-6.6,10.5-15.1,20.1-24.4,28.1
		c-7.3,6.1-15,11.2-22.7,14.8l-8.8,4v10.9c0,5.8,0.3,10.7,0.7,10.7c0.3,0,5-1.5,10.3-3.2c25.5-8.2,44.5-20.4,57.6-37.2
		c1.8-2.3,3.6-4.7,5.1-7.2C1436.8,7390.3,1440.2,7370.2,1434.8,7351.4z"/>
	<path class="st1" d="M928.2,7482.1c-0.2-0.5-0.5-1.1-0.7-1.7c-10.8-26.4-24.8-48.8-39.3-63.7c-7.1-7.3-14.2-12.7-21.1-15.9
		c-23.2-10.7-122.1-8.3-159.2,3.8c-6.8,2.2-11.3,5.4-15.2,12c-2.8,4.7-5.4,11.3-8.3,20.5c-3.3,10.5-7.2,25.3-8.7,33.2
		c-0.6,3.4-1.2,7.4-1.7,11.7c-2.3,19.9-2.9,47.3-1.2,60.1c0.3,2,0.6,3.8,0.9,5.3c1.2,6.6,2.6,8.8,6.6,12.6c6.7,6,21,9.8,45.6,12.2
		c24.2,2.3,100.6,0.7,120.8-2.5c37.2-5.8,62.4-13.2,76.3-22.2c5.5-3.6,9.2-7.4,11.3-11.5C939.1,7526.2,936.5,7503,928.2,7482.1z"/>
	<path class="st1" d="M1230.5,7506.8c-0.8-8.1-1.7-15.9-2.8-23.3h0c-4.6-31.7-11.4-56.3-18.9-68.1c-6.5-1.9-12.1-5.8-16.2-10.9
		c-16.6-5.3-45.3-8.8-74.1-10c-22.2-1-44.5-0.5-61.5,1.6c-8.5,1-15.6,2.5-20.8,4.4c-22.1,8.1-50.1,47.4-63.8,85.7
		c-3.3,9.1-5.7,18.1-7.1,26.6c-2.3,14.9-0.6,23.3,7.7,30.5c2.5,2.2,5.7,4.3,9.5,6.4c15.5,8.6,42,15.9,72.3,20.2
		c6.5,0.9,13.1,1.7,19.8,2.3c7.3,0.7,26,1.1,45.6,1.1c5.1,0,10.3,0,15.3-0.1c61.6-0.8,82.6-5,90.4-18.4c1.4-2.4,2.5-5.5,3.4-9.1
		C1231.6,7535.8,1232.1,7522,1230.5,7506.8z"/>
	<path class="st1" d="M941.6,7327.6c-0.6-0.5-8.9,1.7-17.5,4.5c-6.7,2.2-13.7,4.7-17.2,6.5c-5.9,3-10.5,7.6-13.6,12.8
		c-7.9,13.4-6.3,31,6.9,37.6c10.5,5.3,22.5,2.5,32.7-7.7c5.7-5.5,7.3-8.8,9-16.8C943.9,7355.3,943.6,7329.8,941.6,7327.6z"/>
	<path class="st1" d="M1010.5,7355.1c-2.2-5.8-10.4-13.7-18-17.3c-0.8-0.4-1.8-0.8-3.1-1.4c-9.4-3.6-29.6-9.6-30.5-8.8
		c-0.3,0.3-0.5,8.8-0.7,18.9c-0.2,14.8,0.5,19.5,3.2,25.7c3.5,8,11,14.7,19.7,17.9c2.4,0.9,4.9,1.4,7.4,1.5
		c8.9,0.4,17.8-4.2,21.4-11.8C1012.6,7374.3,1013,7361.3,1010.5,7355.1z"/>
	<path class="st1" d="M1135.4,7199.8c0-2.8-0.8-3.2-5.3-2.5c-1.7,0.4-5.5,0.8-10,1.2c-3.6,0.4-7.6,0.6-11.4,1
		c-15.4,1.1-30.5,0.3-54-3.6c-16.7-2.7-37.6-6.9-65.8-13.1c-1.2-0.3-2.5-0.5-3.7-0.8c-24.3-5.4-40.6-8.3-56.9-10.2
		c-4.9-0.6-9.8-1.1-15-1.5c-24.5-2-55.2,0-70.8,4.8c-12.3,3.8-37.2,15.7-46.2,22c-9.3,6.5-27.9,23.2-31.5,28.2
		c-1.8,2.6-3,4.8-2.6,4.8c0.5,0,7.5-3,15.7-6.8c40.6-18.7,63.7-23.9,109-23.7c13.3,0,23.5,0.5,37.2,1.9c9.2,1,20.1,2.3,34.6,4.3
		c12.2,1.7,22.3,3.1,30.8,4.3c33.1,4.4,43.3,5,65.4,4.9h2.3c26.1,0,40.4-1.7,63.1-7.8c0.5-0.1,1.1-0.3,1.6-0.4
		C1133.1,7203.8,1135.4,7202.5,1135.4,7199.8z"/>
	<path class="st1" d="M1023.7,7171.9c0-2.6-20.9-20.7-30.7-26.7c-24.9-14.9-55.2-21.4-78.1-16.7c-10.7,2.2-31.2,11.7-35.4,16.3
		l-3.2,3.5h17c19.8,0,41.3,2.4,63.6,6.8h0c4.3,0.8,8.7,1.8,13.1,2.8l0,0c11.1,2.6,22.3,5.7,33.5,9.3
		C1023.7,7173.9,1023.7,7173.9,1023.7,7171.9z"/>
</g>
</svg>
