<?xml version="1.0" encoding="UTF-8"?>
<svg width="1111px" height="544px" viewBox="0 0 1111 544" version="1.1" xmlns="http://www.w3.org/2000/svg" xmlns:xlink="http://www.w3.org/1999/xlink">
    <!-- Generator: Sketch 55.2 (78181) - https://sketchapp.com -->
    <title>Path 2</title>
    <desc>Created with Sketch.</desc>
    <g id="page-2" stroke="none" stroke-width="1" fill="none" fill-rule="evenodd">
        <g id="profile-page" transform="translate(-186.000000, -1038.000000)" fill="#C2D1FF">
            <path d="M736.136364,1077.13967 C610.469697,1044.47301 495.636364,1036.30634 391.636364,1052.63967 C287.636364,1068.97301 224.136364,1121.80634 201.136364,1211.13967 C164.136364,1366.80634 194.969697,1480.47301 293.636364,1552.13967 C458.636364,1640.13967 550.136364,1506.63967 826.636364,1487.13967 C978.636364,1485.63967 1104.13636,1497.63967 1178.13636,1508.13967 C1252.13636,1518.63967 1302.63636,1479.63967 1296.13636,1336.13967 C1289.63636,1192.63967 1216.63636,1054.13967 1125.13636,1040.13967 C1033.63636,1026.13967 959.136364,1085.13967 867.636364,1092.63967 C833.30303,1093.30634 789.469697,1088.13967 736.136364,1077.13967 Z" id="Path-2"></path>
        </g>
    </g>
</svg>